<?xml version="1.0" encoding="UTF-8"?>
<svg id="Layer_1" xmlns="http://www.w3.org/2000/svg" xmlns:xlink="http://www.w3.org/1999/xlink" viewBox="0 0 12.86 16">
  <defs>
    <style>
      .cls-1 {
        fill: #4e51a3;
      }

      .cls-2 {
        fill: url(#radial-gradient);
      }

      .cls-3 {
        fill: #bf7959;
      }

      .cls-4 {
        fill: #c0d4e5;
      }

      .cls-5 {
        fill: #e8f4fc;
      }

      .cls-6 {
        fill: #696ab1;
      }

      .cls-7 {
        fill: #eea161;
      }

      .cls-8 {
        fill: #464b52;
      }

      .cls-9 {
        fill: #fff;
      }

      .cls-10 {
        fill: #3d3f42;
      }

      .cls-11 {
        fill: #d78b49;
      }

      .cls-12 {
        fill: #955536;
      }

      .cls-13 {
        fill: #a86040;
      }
    </style>
    <radialGradient id="radial-gradient" cx="-571.45" cy="113.92" fx="-571.45" fy="113.92" r="2.24" gradientTransform="translate(817.19 89.98) scale(1.42 -.72)" gradientUnits="userSpaceOnUse">
      <stop offset="0" stop-color="#010101" stop-opacity=".3"/>
      <stop offset="1" stop-color="#010101" stop-opacity="0"/>
    </radialGradient>
  </defs>
  <g>
    <g id="arm_0_Layer0_0_FILL">
      <path class="cls-3" d="M11.49,7.17c-.23.33-.5.64-.79.93-.56-.3-1.01-.78-1.37-1.42.13-.12.25-.24.36-.37.26-.3.46-.63.6-1.01.09-.25.26-.43.51-.54.25-.1.5-.11.76-.02.25.1.42.28.53.53.11.24.12.49.02.75-.12.3-.26.58-.41.84-.06.11-.13.22-.21.33Z"/>
      <path class="cls-5" d="M8.7,9.09c-.26-.07-.46-.23-.59-.47-.13-.24-.15-.48-.08-.74.07-.26.22-.46.45-.59.32-.18.6-.38.85-.62.36.65.81,1.12,1.37,1.42-.37.34-.79.64-1.26.9-.23.12-.48.15-.74.08Z"/>
    </g>
    <g id="arm_0_Layer0_1_FILL">
      <path class="cls-4" d="M11.12,8.07l-.48.49-1.73-1.74.47-.48,1.74,1.74Z"/>
    </g>
  </g>
  <g>
    <g id="arm_0_Layer0_0_FILL-2" data-name="arm_0_Layer0_0_FILL">
      <path class="cls-3" d="M1.54,7.59c.23.33.5.64.79.93.56-.3,1.01-.78,1.37-1.42-.13-.12-.25-.24-.36-.37-.26-.3-.46-.63-.6-1.01-.09-.25-.26-.43-.51-.54-.25-.1-.5-.11-.76-.02-.25.1-.42.28-.53.53-.11.24-.12.49-.02.75.12.3.26.58.41.84.06.11.13.22.21.33Z"/>
      <path class="cls-5" d="M4.33,9.5c.26-.07.46-.23.59-.47.13-.24.15-.48.08-.74-.07-.26-.22-.46-.45-.59-.32-.18-.6-.38-.85-.62-.36.65-.81,1.12-1.37,1.42.37.34.79.64,1.26.9.23.12.48.15.74.08Z"/>
    </g>
    <g id="arm_0_Layer0_1_FILL-2" data-name="arm_0_Layer0_1_FILL">
      <path class="cls-4" d="M1.91,8.48l.48.49,1.73-1.74-.47-.48-1.74,1.74Z"/>
    </g>
  </g>
  <g id="legBend_0_Layer0_0_FILL">
    <path class="cls-1" d="M3.38,14.14c-.11-.33-.17-.65-.18-.95l1.99-.33c-.04.17-.04.35,0,.54l-1.81.74Z"/>
    <path class="cls-7" d="M3.13,15.7l-.2-.4,2.65-1.16.23.44-2.68,1.12Z"/>
    <path class="cls-9" d="M2.93,15.3l.46-1.16,1.81-.74.39.74-2.65,1.16Z"/>
    <path class="cls-6" d="M4.89,10.82c.26,0,.49.07.68.23.19.17.28.38.28.62,0,.24-.1.45-.3.64-.18.16-.29.34-.35.54h0s-1.99.33-1.99.33c0-.77.32-1.46.99-2.08.19-.18.43-.28.7-.29Z"/>
  </g>
  <g id="legBend_0_Layer0_0_FILL-2" data-name="legBend_0_Layer0_0_FILL">
    <path class="cls-1" d="M8.48,14.45c.21-.28.38-.56.49-.84l-1.76-.99c-.02.18-.08.35-.19.51l1.45,1.31Z"/>
    <path class="cls-7" d="M8.19,16l.32-.31-2.1-2-.36.33,2.14,1.97Z"/>
    <path class="cls-9" d="M8.51,15.69l-.03-1.25-1.45-1.31-.61.56,2.1,2Z"/>
    <path class="cls-6" d="M8.19,10.82c-.25-.1-.48-.1-.71-.01-.23.09-.39.26-.47.49-.08.23-.06.46.06.7.11.22.16.42.15.62h0s1.76.99,1.76.99c.27-.72.2-1.48-.22-2.29-.12-.24-.31-.41-.56-.51Z"/>
  </g>
  <g>
    <g id="body_0_Layer0_0_FILL">
      <path class="cls-4" d="M8.71,11.44v-.82H3.77v.82h4.95Z"/>
      <path class="cls-6" d="M8.47,12.29c.15-.21.24-.49.25-.86H3.77c.01.36.09.65.25.86h4.45Z"/>
      <path class="cls-5" d="M9.24,8.37c.12-.59-.03-.88-.43-.86H3.66c-.4-.02-.54.26-.43.86l.54,2.25h4.95l.53-2.25Z"/>
    </g>
    <g id="body_0_Layer0_0_MEMBER_0_FILL">
      <path class="cls-13" d="M7.56,6.29c-.35-.28-.76-.42-1.24-.42s-.9.14-1.24.42c-.34.3-.51.65-.51,1.06,0,.03,0,.05,0,.08.02.37.18.69.5.96.35.3.76.44,1.24.44s.9-.15,1.24-.44c.32-.26.49-.58.5-.96,0-.03,0-.05,0-.08,0-.41-.17-.77-.51-1.06Z"/>
    </g>
    <g id="body_0_Layer0_0_MEMBER_1_FILL">
      <path class="cls-11" d="M5.79,10.66l-2.32.21c.04.27.09.55.14.86l2.05-.25c.05-.25.1-.52.13-.82Z"/>
      <path class="cls-7" d="M5.79,10.66c.04-.38.05-.8.04-1.24-.74-.47-1.33-1.17-1.76-2.12l-.75-.14c-.23.41-.18,1.64.15,3.71l2.32-.21Z"/>
    </g>
    <g id="body_0_Layer0_0_MEMBER_2_FILL">
      <path class="cls-11" d="M9.09,10.86l-2.32-.21c.03.29.08.56.13.82l2.05.25c.05-.3.1-.59.14-.86Z"/>
      <path class="cls-7" d="M6.72,9.41c-.01.44,0,.86.04,1.24l2.32.21c.32-2.07.37-3.31.15-3.71l-.75.14c-.43.95-1.02,1.66-1.76,2.12Z"/>
    </g>
    <g id="body_0_Layer0_0_MEMBER_3_FILL">
      <path class="cls-4" d="M4.16,7.35l-.34.59,2.16,1.25.34-.6-2.16-1.24M8.48,7.35l-2.16,1.24.34.6,2.16-1.25-.34-.59Z"/>
      <path class="cls-5" d="M6.66,9.2l-.34-.6-.34.6h.68Z"/>
    </g>
  </g>
  <g id="hand_0_Layer0_0_FILL">
    <path class="cls-13" d="M10.57,3.52l-.09.13c-.29.62-.38,1.18-.25,1.68-.47-1.09-.36-1.7.33-1.82h0Z"/>
    <path class="cls-3" d="M12.12,6.17c-.08.13-.19.15-.33.07l-1.56-.91c-.13-.5-.04-1.06.25-1.68l.09-.13h0c.09-.17.18-.34.29-.51l.03-.06c.08-.13.23-.16.45-.08.34.11.65.24.93.41.81.47.78,1.39-.08,2.76l-.07.13Z"/>
  </g>
  <g id="hand_0_Layer0_0_FILL-2" data-name="hand_0_Layer0_0_FILL">
    <path class="cls-13" d="M2.29,3.68l.09.13c.29.62.38,1.18.25,1.68.47-1.09.36-1.7-.33-1.82h0Z"/>
    <path class="cls-3" d="M.74,6.34c.08.13.19.15.33.07l1.56-.91c.13-.5.04-1.06-.25-1.68l-.09-.13h0c-.09-.17-.18-.34-.29-.51l-.03-.06c-.08-.13-.23-.16-.45-.08-.34.11-.65.24-.93.41-.81.47-.78,1.39.08,2.76l.07.13Z"/>
  </g>
  <g id="shadow_0_Layer0_0_FILL">
    <path class="cls-2" d="M8.67,6.91c-.61-.31-1.34-.46-2.21-.46s-1.61.15-2.23.46c-.61.32-.91.69-.91,1.13s.3.81.91,1.12c.62.32,1.37.47,2.23.47s1.6-.16,2.21-.47c.62-.31.93-.68.93-1.12s-.31-.82-.93-1.13Z"/>
  </g>
  <g>
    <g id="head_0_Layer0_0_FILL">
      <path class="cls-8" d="M8.14.72L7.61,0c-1.61-.02-3.1.12-4.48.44-.78.16-1.11.56-1,1.19l.05.28c.08-.4.41-.65,1-.77,1.38-.31,2.88-.45,4.48-.43l.47.02M9.91,1.33v-.21c.05-.62-.27-.98-.96-1.06l-.71.66.76.02c.48.06.78.25.9.58Z"/>
      <path class="cls-10" d="M9.01.75l-.76-.02-.06.05-.05-.06-.47-.02c-1.61-.02-3.1.12-4.48.43-.59.12-.92.38-1,.77l.58,3.16c.09.47.42.69.98.65l5.11-.33c.57-.04.87-.3.89-.78l.17-3.29c-.13-.33-.43-.52-.9-.58Z"/>
    </g>
    <g id="head_0_Layer0_1_FILL">
      <path class="cls-3" d="M2.26,5.03c-.24.27-.35.59-.33.96s.17.67.45.91c.28.25.6.37.95.34s.66-.18.91-.46c.24-.27.34-.59.32-.96s-.17-.67-.44-.91c-.28-.25-.6-.37-.96-.34s-.66.18-.9.46M2.74,6.51c-.16-.14-.25-.33-.27-.55s.05-.41.19-.58c.14-.16.32-.25.54-.27.22-.01.42.05.58.19.16.15.25.34.27.55.01.22-.05.42-.19.58-.14.17-.33.26-.55.27s-.4-.05-.57-.2M8.34,4.63c-.24.27-.35.59-.33.96s.17.67.45.91c.28.25.6.37.95.34s.66-.18.91-.46c.24-.27.34-.59.32-.96s-.17-.67-.44-.91c-.28-.25-.6-.37-.96-.34s-.66.18-.9.46M8.75,4.98c.14-.16.32-.25.54-.27s.41.05.58.19c.16.15.25.34.27.55.01.22-.05.42-.19.58-.15.17-.33.26-.55.27s-.4-.05-.57-.2c-.17-.14-.26-.33-.27-.55s.05-.41.2-.58Z"/>
      <path class="cls-13" d="M2.47,5.95c.01.22.1.41.27.55.16.15.35.22.57.2.22-.01.41-.11.55-.27.14-.16.21-.36.19-.58-.01-.21-.1-.4-.27-.55-.16-.14-.36-.21-.58-.19s-.39.1-.54.27c-.14.17-.21.37-.19.58M9.28,4.71c-.21.01-.39.1-.54.27-.15.17-.22.37-.2.58.01.22.11.41.27.55.16.15.35.22.57.2s.4-.11.55-.27c.14-.16.21-.36.19-.58s-.1-.4-.27-.55c-.17-.14-.36-.21-.58-.19Z"/>
    </g>
    <g id="head_0_Layer0_2_FILL">
      <path class="cls-3" d="M8.44,7.8c.59-.11.9-.45.94-1.02l.16-4.3-6.88.45.86,5.19,4.91-.32Z"/>
    </g>
    <g id="head_0_Layer0_3_FILL">
      <path class="cls-9" d="M4.22,5.41c.01.19.08.35.21.48.14.14.31.2.51.19.19-.01.34-.1.45-.25.12-.15.17-.31.16-.51s-.09-.35-.22-.48c-.14-.13-.3-.2-.48-.18-.2.01-.36.09-.48.25-.11.14-.16.31-.15.5M4.63,5.41v-.04c0-.12.03-.22.09-.3.07-.09.16-.14.27-.15.12,0,.21.03.3.11.08.08.12.17.13.29v.04c0,.11-.03.21-.09.29-.07.09-.16.14-.28.15-.11,0-.21-.03-.29-.11-.08-.08-.12-.17-.13-.28M7.22,5.71c.15.14.32.2.51.19s.34-.1.45-.25c.13-.15.19-.31.17-.51-.01-.19-.09-.35-.24-.48-.12-.13-.28-.2-.47-.18s-.35.09-.48.25c-.11.14-.16.31-.15.5s.08.35.21.48M7.75,4.87c.08.08.13.17.14.29v.04c0,.11-.03.21-.1.3-.07.09-.15.14-.26.15-.11,0-.21-.03-.3-.11-.07-.08-.11-.17-.13-.28v-.06c0-.1.02-.2.08-.29.08-.09.18-.14.29-.15.11,0,.2.03.28.11Z"/>
      <path class="cls-10" d="M4.63,5.37v.04c.02.11.06.2.14.28.08.08.18.12.29.11.12,0,.21-.06.28-.15.07-.09.1-.19.1-.29v-.04c-.02-.11-.06-.21-.14-.29-.08-.08-.18-.12-.3-.11-.11,0-.2.06-.27.15-.07.09-.1.19-.1.3M7.89,5.16c-.01-.11-.06-.21-.14-.29-.08-.08-.17-.12-.28-.11-.11,0-.21.06-.29.15-.06.09-.09.18-.09.29v.06c.02.11.06.2.13.28.09.08.19.12.3.11.11,0,.2-.06.26-.15.07-.09.11-.19.1-.3v-.04Z"/>
    </g>
    <g id="head_0_Layer0_3_MEMBER_0_FILL">
      <path class="cls-10" d="M5.76,4.79v-.47s-1.78.03-1.78.03v.47s1.78-.03,1.78-.03M6.76,4.26l.06.47,1.76-.2-.05-.47-1.77.2Z"/>
    </g>
    <g id="head_0_Layer0_3_MEMBER_1_FILL">
      <path class="cls-10" d="M6.28,6.08c-.39.03-.71.13-.97.3-.24.16-.37.34-.39.54,0,.03,0,.06,0,.09.01.03.03.05.05.07s.05.03.08.04c.48.04.92-.04,1.32-.25.42.15.87.18,1.34.08.03,0,.06-.02.08-.05s.04-.05.04-.08c0-.03,0-.06,0-.09-.05-.19-.21-.36-.47-.48-.28-.14-.62-.2-1-.17h-.05s-.03,0-.05,0Z"/>
    </g>
    <g id="head_0_Layer0_3_MEMBER_2_FILL">
      <path class="cls-12" d="M6.74,6.03c.1-.08.15-.18.15-.28,0-.1-.07-.19-.18-.26-.11-.06-.25-.09-.41-.08s-.28.05-.39.13c-.1.09-.15.18-.15.28,0,.1.07.19.18.26.11.08.25.11.4.1s.29-.06.39-.15Z"/>
    </g>
    <g id="head_0_Layer0_4_FILL">
      <path class="cls-10" d="M2.8,3h0c-.11.02-.2.08-.26.18-.07.09-.09.18-.06.29l.48,2.61c.02.1.07.19.17.26.09.06.19.08.3.05h0c.11-.02.19-.07.25-.17s.08-.19.06-.31l-.48-2.59c-.02-.11-.08-.2-.17-.26-.09-.06-.18-.08-.29-.07M9.13,2.68c-.08.07-.12.16-.13.28l-.14,2.63c0,.12.03.22.1.3.07.08.16.13.27.13h0c.11,0,.2-.02.28-.09.09-.08.13-.18.14-.28l.14-2.65c0-.11-.02-.2-.1-.28-.08-.09-.17-.14-.28-.15h0c-.11,0-.2.04-.28.11Z"/>
    </g>
    <g id="head_0_Layer0_5_FILL">
      <path class="cls-10" d="M8.63,3.19c.69-.27,1.02-.55,1-.85s-.38-.51-1.1-.65c-.7-.14-1.55-.17-2.54-.07-.98.1-1.81.28-2.5.55-.68.28-1.01.56-.99.85s.38.51,1.09.65c.71.15,1.56.17,2.54.07.99-.09,1.82-.27,2.5-.55Z"/>
    </g>
  </g>
</svg>