<?xml version="1.0" encoding="UTF-8"?>
<svg id="Layer_1" xmlns="http://www.w3.org/2000/svg" xmlns:xlink="http://www.w3.org/1999/xlink" viewBox="0 0 11.39 16">
  <defs>
    <style>
      .cls-1 {
        fill: #4e51a3;
      }

      .cls-2 {
        fill: url(#radial-gradient);
      }

      .cls-3 {
        fill: #bf7959;
      }

      .cls-4 {
        fill: #c0d4e5;
      }

      .cls-5 {
        fill: #e8f4fc;
      }

      .cls-6 {
        fill: #696ab1;
      }

      .cls-7 {
        fill: #eea161;
      }

      .cls-8 {
        fill: #464b52;
      }

      .cls-9 {
        fill: #fff;
      }

      .cls-10 {
        fill: #3d3f42;
      }

      .cls-11 {
        fill: #d78b49;
      }

      .cls-12 {
        fill: #955536;
      }

      .cls-13 {
        fill: #a86040;
      }
    </style>
    <radialGradient id="radial-gradient" cx="-28.72" cy="91.92" fx="-28.72" fy="91.92" r="2.32" gradientTransform="translate(49.06 100.1) scale(1.51 -1)" gradientUnits="userSpaceOnUse">
      <stop offset="0" stop-color="#010101" stop-opacity=".3"/>
      <stop offset="1" stop-color="#010101" stop-opacity="0"/>
    </radialGradient>
  </defs>
  <g id="leg_0_Layer0_0_FILL">
    <path class="cls-1" d="M7.97,14.46l.03-.85h-2.03l-.03.85h2.03Z"/>
    <path class="cls-9" d="M8.94,15.49l-.98-1.02h-2.02l-.04,1.02h3.05Z"/>
    <path class="cls-7" d="M8.92,16l.02-.51h-3.05l-.03.51h3.05Z"/>
    <path class="cls-6" d="M8.07,12.04c0-.27-.11-.51-.32-.7-.21-.19-.47-.29-.78-.29s-.56.1-.78.29c-.22.19-.32.43-.32.7l.09,1.57h2.03l.08-1.57Z"/>
  </g>
  <g id="leg_0_Layer0_0_FILL-2" data-name="leg_0_Layer0_0_FILL">
    <path class="cls-1" d="M3.43,14.46l-.03-.85h2.03l.03.85h-2.03Z"/>
    <path class="cls-9" d="M2.45,15.49l.98-1.02h2.02l.04,1.02h-3.05Z"/>
    <path class="cls-7" d="M2.47,16l-.02-.51h3.05l.03.51h-3.05Z"/>
    <path class="cls-6" d="M3.32,12.04c0-.27.11-.51.32-.7.21-.19.47-.29.78-.29s.56.1.78.29c.22.19.32.43.32.7l-.09,1.57h-2.03l-.08-1.57Z"/>
  </g>
  <g>
    <g id="arm_0_Layer0_0_FILL">
      <path class="cls-3" d="M10.97,10.62c-.14-.39-.32-.77-.55-1.14-.64.15-1.22.51-1.75,1.06.1.15.18.31.26.47.18.36.29.76.33,1.18.03.27.15.5.37.67.22.17.47.24.75.22.27-.03.5-.16.67-.38.18-.21.25-.46.22-.74-.04-.33-.1-.65-.19-.95-.03-.13-.07-.26-.12-.38Z"/>
      <path class="cls-5" d="M8.69,7.95c-.28,0-.52.11-.72.31-.19.2-.28.44-.27.72,0,.28.1.51.29.71.27.26.5.54.68.84.53-.55,1.11-.9,1.75-1.06-.28-.44-.62-.85-1.02-1.24-.2-.18-.44-.28-.72-.28Z"/>
    </g>
    <g id="arm_0_Layer0_1_FILL">
      <path class="cls-4" d="M10.84,9.63l-.35-.61-2.2,1.28.34.61,2.21-1.27Z"/>
    </g>
  </g>
  <g>
    <g id="arm_0_Layer0_0_FILL-2" data-name="arm_0_Layer0_0_FILL">
      <path class="cls-3" d="M.42,10.62c.14-.39.32-.77.55-1.14.64.15,1.22.51,1.75,1.06-.1.15-.18.31-.26.47-.18.36-.29.76-.33,1.18-.03.27-.15.5-.37.67-.22.17-.47.24-.75.22-.27-.03-.5-.16-.67-.38-.18-.21-.25-.46-.22-.74.04-.33.1-.65.19-.95.03-.13.07-.26.12-.38Z"/>
      <path class="cls-5" d="M2.7,7.95c.28,0,.52.11.72.31.19.2.28.44.27.72,0,.28-.1.51-.29.71-.27.26-.5.54-.68.84-.53-.55-1.11-.9-1.75-1.06.28-.44.62-.85,1.02-1.24.2-.18.44-.28.72-.28Z"/>
    </g>
    <g id="arm_0_Layer0_1_FILL-2" data-name="arm_0_Layer0_1_FILL">
      <path class="cls-4" d="M.55,9.63l.35-.61,2.2,1.28-.34.61-2.21-1.27Z"/>
    </g>
  </g>
  <g>
    <g id="body_0_Layer0_0_FILL">
      <path class="cls-4" d="M8.19,12.06v-.84H3.06v.84h5.13Z"/>
      <path class="cls-6" d="M7.93,12.95c.16-.22.24-.51.26-.89H3.06c.01.38.1.67.26.89h4.62Z"/>
      <path class="cls-5" d="M8.73,8.88c.12-.61-.03-.91-.44-.89H2.95c-.42-.02-.56.27-.44.89l.55,2.33h5.13l.55-2.33Z"/>
    </g>
    <g id="body_0_Layer0_0_MEMBER_0_FILL">
      <path class="cls-13" d="M6.99,6.73c-.36-.29-.79-.44-1.29-.44s-.93.15-1.29.44c-.35.31-.53.67-.53,1.1,0,.03,0,.06,0,.09.02.39.19.72.52.99.36.31.79.46,1.29.46s.93-.15,1.29-.46c.33-.27.5-.6.52-.99,0-.03,0-.06,0-.09,0-.43-.18-.79-.53-1.1Z"/>
    </g>
    <g id="body_0_Layer0_0_MEMBER_1_FILL">
      <path class="cls-11" d="M5.16,11.25l-2.41.21c.05.28.09.57.15.89l2.12-.26c.06-.26.1-.54.14-.84Z"/>
      <path class="cls-7" d="M5.16,11.25c.04-.4.05-.83.04-1.29-.77-.48-1.38-1.22-1.83-2.2l-.78-.15c-.23.42-.18,1.7.15,3.85l2.41-.21Z"/>
    </g>
    <g id="body_0_Layer0_0_MEMBER_2_FILL">
      <path class="cls-11" d="M8.57,11.46l-2.41-.21c.03.3.08.58.14.84l2.12.26c.05-.31.1-.61.15-.89Z"/>
      <path class="cls-7" d="M6.12,9.96c-.01.46,0,.89.04,1.29l2.41.21c.34-2.14.39-3.43.15-3.85l-.78.15c-.45.98-1.06,1.72-1.83,2.2Z"/>
    </g>
    <g id="body_0_Layer0_0_MEMBER_3_FILL">
      <path class="cls-4" d="M3.47,7.83l-.35.61,2.24,1.3.35-.62-2.24-1.29M7.94,7.83l-2.24,1.29.35.62,2.24-1.3-.35-.61Z"/>
      <path class="cls-5" d="M6.05,9.74l-.35-.62-.35.62h.7Z"/>
    </g>
  </g>
  <g id="hand_0_Layer0_0_FILL">
    <path class="cls-13" d="M8.62,13.88v-.16c.05-.71.26-1.25.64-1.64-.99.73-1.21,1.34-.65,1.81h0Z"/>
    <path class="cls-3" d="M11.39,12.3c0-.15-.09-.23-.26-.23h-1.87c-.38.4-.59.94-.65,1.65v.16s0,0,0,0c0,.19,0,.39,0,.6v.07c0,.16.12.26.37.31.36.08.71.12,1.05.11.97,0,1.42-.84,1.36-2.52v-.15Z"/>
  </g>
  <g id="hand_0_Layer0_0_FILL-2" data-name="hand_0_Layer0_0_FILL">
    <path class="cls-13" d="M2.77,13.88v-.16c-.05-.71-.26-1.25-.64-1.64.99.73,1.21,1.34.65,1.81h0Z"/>
    <path class="cls-3" d="M0,12.3c0-.15.09-.23.26-.23h1.87c.38.4.59.94.65,1.65v.16s0,0,0,0c0,.19,0,.39,0,.6v.07c0,.16-.12.26-.37.31-.36.08-.71.12-1.05.11-.97,0-1.42-.84-1.36-2.52v-.15Z"/>
  </g>
  <g id="shadow_0_Layer0_0_FILL">
    <path class="cls-2" d="M8.2,6.55c-.67-.44-1.48-.67-2.43-.67s-1.77.22-2.46.67c-.67.46-1,1-1,1.63s.33,1.17,1,1.61c.69.46,1.5.68,2.46.68s1.76-.23,2.43-.68c.69-.44,1.03-.98,1.03-1.61s-.34-1.17-1.03-1.63Z"/>
  </g>
  <g>
    <g id="head_0_Layer0_0_FILL">
      <path class="cls-8" d="M8.17.85l-.49-.78C6.02-.06,4.46,0,3.01.22c-.81.11-1.18.5-1.11,1.16l.03.29c.11-.4.47-.65,1.08-.73,1.45-.23,3.01-.28,4.67-.15l.49.05M9.96,1.6l.03-.21c.08-.64-.23-1.03-.93-1.16l-.78.64.78.08c.49.09.79.31.9.66Z"/>
      <path class="cls-10" d="M9.07.94l-.78-.08-.07.05-.04-.07-.49-.05c-1.66-.13-3.22-.08-4.67.15-.61.09-.98.33-1.08.73l.38,3.31c.06.49.39.74.97.74h5.31c.59,0,.92-.25.97-.74l.39-3.39c-.11-.35-.41-.57-.9-.66Z"/>
    </g>
    <g id="head_0_Layer0_1_FILL">
      <path class="cls-3" d="M1.81,4.91c-.27.27-.4.59-.4.97s.13.71.4.97c.27.28.59.42.96.42s.7-.14.97-.42c.26-.27.39-.59.39-.97s-.13-.71-.39-.97c-.27-.28-.6-.42-.97-.42s-.69.14-.96.42M2.2,6.47c-.16-.16-.24-.36-.24-.59s.08-.42.24-.59c.16-.16.35-.24.57-.24.23,0,.43.08.59.24.16.17.24.37.24.59,0,.23-.08.43-.24.59-.16.16-.36.25-.59.25s-.41-.08-.57-.25M8.12,4.91c-.27.27-.4.59-.4.97s.13.71.4.97c.27.28.59.42.96.42s.7-.14.97-.42c.26-.27.39-.59.39-.97s-.13-.71-.39-.97c-.27-.28-.6-.42-.97-.42s-.69.14-.96.42M8.51,5.29c.16-.16.35-.24.57-.24s.42.08.59.24c.16.17.24.37.24.59,0,.23-.08.43-.24.59-.16.16-.36.25-.59.25s-.41-.08-.57-.25c-.16-.16-.25-.36-.25-.59s.08-.42.25-.59Z"/>
      <path class="cls-13" d="M1.96,5.88c0,.23.08.43.24.59.16.16.35.25.57.25.23,0,.43-.08.59-.25.16-.16.24-.36.24-.59,0-.22-.08-.42-.24-.59-.16-.16-.36-.24-.59-.24s-.41.08-.57.24c-.16.17-.24.37-.24.59M9.08,5.05c-.22,0-.41.08-.57.24-.16.17-.25.37-.25.59,0,.23.08.43.25.59.16.16.35.25.57.25s.42-.08.59-.25c.16-.16.24-.36.24-.59s-.08-.42-.24-.59c-.16-.16-.36-.24-.59-.24Z"/>
    </g>
    <g id="head_0_Layer0_2_FILL">
      <path class="cls-3" d="M8.01,8.19c.61-.08.96-.41,1.04-.99l.45-4.44H2.36l.55,5.43h5.1Z"/>
    </g>
    <g id="head_0_Layer0_3_FILL">
      <path class="cls-9" d="M3.8,5.44c0,.2.06.37.19.51.14.15.31.23.51.23.19,0,.36-.08.49-.23.13-.14.2-.31.2-.51s-.07-.37-.2-.51c-.13-.15-.29-.22-.49-.22-.2,0-.38.07-.51.22-.13.14-.19.31-.19.51M4.23,5.46v-.04c0-.12.05-.22.12-.31.08-.09.18-.14.29-.14.12,0,.22.05.3.14.07.09.11.19.12.31v.04c0,.11-.05.21-.12.3-.08.09-.18.14-.3.14-.11,0-.21-.05-.29-.14-.07-.09-.11-.18-.12-.3M6.88,5.95c.14.15.31.23.51.23s.36-.08.48-.23c.14-.14.21-.31.21-.51,0-.2-.07-.37-.21-.51-.12-.15-.28-.22-.48-.22s-.37.07-.51.22c-.13.14-.19.31-.19.51s.06.37.19.51M7.49,5.11c.08.09.12.19.13.31v.04c0,.11-.05.21-.13.3-.07.09-.17.14-.28.14-.11,0-.22-.05-.31-.14-.07-.09-.11-.18-.11-.3v-.06c0-.11.04-.2.11-.29.09-.09.19-.14.31-.14.11,0,.21.05.28.14Z"/>
      <path class="cls-10" d="M4.23,5.42v.04c0,.11.05.21.12.3.08.09.18.14.29.14.12,0,.22-.05.3-.14.07-.09.11-.18.12-.3v-.04c0-.12-.05-.22-.12-.31-.08-.09-.18-.14-.3-.14-.11,0-.21.05-.29.14-.07.09-.11.19-.12.31M7.62,5.42c0-.12-.05-.22-.13-.31-.07-.09-.17-.14-.28-.14-.11,0-.22.05-.31.14-.07.09-.11.18-.11.29v.06c0,.11.04.21.11.3.09.09.19.14.31.14.11,0,.21-.05.28-.14.08-.09.12-.18.13-.3v-.04Z"/>
    </g>
    <g id="head_0_Layer0_3_MEMBER_0_FILL">
      <path class="cls-10" d="M5.43,4.9l.03-.49-1.84-.09-.03.49,1.83.09M6.51,4.41l.03.49,1.83-.09-.03-.49-1.84.09Z"/>
    </g>
    <g id="head_0_Layer0_3_MEMBER_1_FILL">
      <path class="cls-10" d="M5.89,6.26c-.4,0-.75.08-1.02.25-.26.15-.41.32-.44.53-.01.03-.01.06,0,.09.01.03.03.05.05.08s.05.04.09.04c.49.07.95.02,1.38-.17.43.19.89.24,1.38.17.03,0,.06-.02.09-.04s.04-.05.05-.08c.01-.03.01-.07,0-.09-.04-.2-.19-.38-.45-.53-.28-.16-.63-.25-1.02-.25h-.1Z"/>
    </g>
    <g id="head_0_Layer0_3_MEMBER_2_FILL">
      <path class="cls-12" d="M6.37,6.25c.11-.08.17-.17.17-.28,0-.1-.06-.2-.17-.28-.11-.07-.25-.11-.42-.11s-.3.04-.41.11c-.11.09-.17.18-.17.28,0,.11.06.2.17.28.11.09.25.13.41.13s.3-.04.42-.13Z"/>
    </g>
    <g id="head_0_Layer0_4_FILL">
      <path class="cls-10" d="M2.5,2.85h0c-.11.02-.21.07-.28.17-.07.09-.1.18-.09.3l.32,2.73c.01.11.06.2.15.28.09.07.19.09.31.08h0c.11-.01.2-.06.27-.15s.1-.2.09-.32l-.32-2.71c-.02-.12-.07-.21-.16-.28-.09-.07-.18-.1-.29-.09M9.07,2.95c-.09.07-.14.16-.15.28l-.32,2.71c-.01.12.02.22.09.32.07.09.16.14.27.15h0c.11.02.21,0,.3-.08.1-.08.15-.17.16-.28l.32-2.73c.02-.11-.01-.21-.09-.3-.07-.1-.17-.15-.28-.17h0c-.11,0-.21.03-.3.09Z"/>
    </g>
    <g id="head_0_Layer0_5_FILL">
      <path class="cls-10" d="M8.51,3.43c.73-.23,1.09-.5,1.09-.81s-.36-.55-1.09-.74c-.72-.19-1.59-.28-2.62-.25-1.02.03-1.89.17-2.62.4-.72.24-1.08.51-1.08.81s.36.55,1.08.74c.73.2,1.6.28,2.62.25,1.03-.03,1.9-.16,2.62-.4Z"/>
    </g>
  </g>
</svg>