<?xml version="1.0" encoding="UTF-8"?>
<svg id="Layer_1" xmlns="http://www.w3.org/2000/svg" viewBox="0 0 16 16">
  <defs>
    <style>
      .cls-1 {
        fill: #989292;
      }

      .cls-2 {
        fill: #555454;
      }

      .cls-3 {
        fill: #5c5c5c;
      }

      .cls-4 {
        fill: #e8e7e7;
      }

      .cls-5 {
        fill: #fff;
      }

      .cls-6 {
        fill: #a7a1a1;
      }

      .cls-7 {
        fill: #bdb6b7;
      }

      .cls-8 {
        fill: #474646;
      }

      .cls-9 {
        fill: #424141;
      }
    </style>
  </defs>
  <path class="cls-2" d="M0,1.53v-.44C0,.36.36,0,1.08,0h13.84c.72,0,1.08.36,1.08,1.09v.44c-.02-.68-.38-1.03-1.08-1.03H1.08C.38.5.02.84,0,1.53"/>
  <path class="cls-9" d="M0,1.53C.02.84.38.5,1.08.5h13.84c.7,0,1.06.34,1.08,1.03v13.46c-.02.68-.38,1.02-1.08,1.02H1.08c-.7,0-1.06-.34-1.08-1.02V1.53M13.44,5.22l-.26-.24-.34-.25c-.54-.35-1.15-.52-1.82-.52s-1.29.17-1.83.52c-.79.4-1.58.4-2.38,0-.54-.35-1.15-.52-1.82-.52s-1.29.17-1.83.52l-.34.25-.26.24c-.67.67-1.01,1.48-1.01,2.43s.34,1.76,1.01,2.44h.01l.57.46c0,1.33.48,2.46,1.43,3.4.38.38.78.68,1.22.91.67.35,1.4.52,2.21.52,1.34,0,2.49-.47,3.44-1.43l.46-.51c.63-.83.95-1.8.96-2.89l.58-.46c.67-.68,1.01-1.49,1.01-2.44,0-.95-.34-1.75-1.01-2.43M10.25,3.59v-.07c-.04-.6-.26-1.12-.64-1.56-.43-.48-.94-.72-1.54-.72s-1.12.24-1.55.72c-.38.44-.59.96-.63,1.56v.07c0,.06,0,.11.03.17.07.18.28.34.6.47.43.18.95.26,1.55.26s1.11-.09,1.54-.26c.33-.14.53-.3.61-.47l.03-.17"/>
  <path class="cls-7" d="M13.44,5.22c.67.67,1.01,1.48,1.01,2.43,0,.95-.34,1.76-1.01,2.44l-.58.46c0,1.09-.33,2.05-.96,2.89l-.46.51c-.95.95-2.1,1.43-3.44,1.43-.81,0-1.55-.17-2.21-.52-.44-.22-.85-.53-1.22-.91-.95-.94-1.42-2.07-1.43-3.4l-.57-.46h-.01c-.67-.68-1.01-1.49-1.01-2.44s.34-1.75,1.01-2.43l.26-.24.34-.25c.54-.35,1.15-.52,1.83-.52s1.29.17,1.82.52c.79.4,1.58.4,2.38,0,.54-.35,1.15-.52,1.83-.52s1.29.17,1.82.52l.34.25.26.24M5.28,5.59c-.11.01-.2.06-.29.14-.08.08-.12.18-.12.29s.04.21.12.29c.08.08.19.13.32.14,1.78.22,3.56.21,5.33-.03.15,0,.27-.04.35-.12.08-.08.12-.18.12-.29s-.04-.21-.12-.29c-.08-.08-.2-.13-.35-.14-1.83-.17-3.62-.17-5.36,0M2.79,8.13c0,.38.14.71.41.97.28.28.6.42.99.42.38,0,.71-.14.99-.42.27-.26.4-.59.4-.97s-.13-.71-.4-.97c-.28-.27-.61-.4-.99-.4s-.71.13-.99.4c-.27.27-.41.59-.41.97M8.47,8.52h-.02c-.1.11-.14.23-.14.37s.05.27.16.38l.05.04.05.04c.08.05.16.07.27.07.14,0,.25-.05.35-.14l.02-.03.21-.25c.07-.1.12-.2.14-.31v-.04c.05-.18.02-.32-.07-.41-.1-.1-.25-.12-.46-.07-.19.06-.38.18-.56.36M7.66,9.26c.1-.1.15-.23.15-.38s-.05-.26-.14-.36h-.02c-.18-.19-.36-.31-.56-.37-.2-.05-.35-.03-.46.07-.09.09-.12.23-.07.41v.04c.04.1.08.21.15.31.05.08.12.16.21.24v.03c.11.1.23.14.38.14.1,0,.19-.02.28-.07l.05-.04.05-.04M5.79,10.92l-.36.11c-.29.1-.49.28-.62.55-.13.28-.15.55-.05.82.1.29.28.5.56.62.15.08.31.11.47.11l.35-.06c1.38-.48,2.64-.49,3.78-.03.16.07.33.09.49.08l.33-.08c.27-.11.47-.3.58-.58.11-.27.11-.55,0-.83-.11-.27-.3-.47-.58-.59l-.34-.14c-1.42-.51-2.96-.51-4.62,0M13.3,8.13c0-.38-.14-.71-.41-.97s-.6-.4-.99-.4-.7.13-.97.4c-.28.27-.42.59-.42.97s.14.71.42.97c.27.28.59.42.97.42.39,0,.72-.14.99-.42.27-.26.41-.59.41-.97"/>
  <path class="cls-8" d="M10.25,3.59l-.03.17c-.08.18-.28.34-.61.47-.43.18-.94.26-1.54.26s-1.12-.09-1.55-.26c-.32-.14-.53-.3-.6-.47-.02-.05-.04-.11-.04-.17v-.07c.04-.6.25-1.12.64-1.56.43-.48.95-.72,1.55-.72s1.11.24,1.54.72c.39.44.6.96.64,1.56v.07"/>
  <path class="cls-6" d="M5.28,5.59c1.74-.18,3.53-.18,5.36,0,.15.02.27.06.35.14.08.08.12.18.12.29s-.04.21-.12.29c-.08.08-.2.12-.35.12-1.77.23-3.54.24-5.33.03-.13-.02-.24-.06-.32-.14-.08-.08-.12-.18-.12-.29s.04-.21.12-.29c.08-.08.18-.12.29-.14"/>
  <path class="cls-5" d="M2.79,8.13c0-.38.14-.71.41-.97.28-.27.6-.4.99-.4s.71.13.99.4c.27.27.4.59.4.97s-.13.71-.4.97c-.28.28-.61.42-.99.42-.38,0-.71-.14-.99-.42-.27-.26-.41-.59-.41-.97M3.47,8.16c0,.24.09.44.26.6.16.18.36.26.61.26s.45-.09.62-.26c.17-.16.26-.36.26-.6,0-.25-.09-.46-.26-.62-.17-.17-.38-.25-.62-.25-.25,0-.45.08-.61.25-.17.16-.26.37-.26.62M5.79,10.92c1.67-.51,3.21-.51,4.62,0,.26.78.26,1.52,0,2.22-.17.01-.33-.01-.49-.08-1.15-.46-2.41-.45-3.78.03l-.35.06c-.3-.66-.3-1.4,0-2.23M13.3,8.13c0,.38-.14.71-.41.97-.27.28-.6.42-.99.42-.38,0-.7-.14-.97-.42-.28-.26-.42-.59-.42-.97s.14-.71.42-.97c.27-.27.59-.4.97-.4s.72.13.99.4.41.59.41.97M12.63,8.16c0-.25-.09-.46-.26-.62-.17-.17-.38-.25-.61-.25-.24,0-.45.08-.62.25-.17.16-.26.37-.26.62s.09.44.26.6c.18.18.39.26.62.26s.44-.09.61-.26c.17-.16.26-.36.26-.6"/>
  <path class="cls-1" d="M8.47,8.52c.18-.18.36-.3.56-.36.2-.05.36-.03.46.07.09.09.12.23.08.41v.04c-.04.1-.09.21-.16.31l-.21.25-.02.03c-.1.1-.21.14-.35.14-.1,0-.19-.02-.27-.07l-.05-.04-.05-.04c-.1-.1-.16-.23-.16-.38s.05-.26.14-.36h.02M7.66,9.26l-.05.04-.05.04c-.08.05-.18.07-.28.07-.14,0-.26-.05-.36-.14v-.03c-.1-.08-.16-.16-.22-.24-.07-.1-.11-.21-.14-.31v-.04c-.05-.18-.03-.32.06-.41.1-.1.26-.12.46-.07.2.06.39.18.56.36h.02c.1.11.14.23.14.37s-.05.27-.15.38"/>
  <path class="cls-3" d="M3.47,8.16c0-.25.09-.46.26-.62.16-.17.36-.25.61-.25.24,0,.45.08.62.25.17.16.26.37.26.62s-.09.44-.26.6c-.17.18-.38.26-.62.26s-.45-.09-.61-.26c-.17-.16-.26-.36-.26-.6M12.63,8.16c0,.24-.09.44-.26.6-.17.18-.38.26-.61.26s-.45-.09-.62-.26c-.17-.16-.26-.36-.26-.6,0-.25.09-.46.26-.62.18-.17.39-.25.62-.25.24,0,.44.08.61.25.17.16.26.37.26.62"/>
  <path class="cls-4" d="M5.79,13.14c-.16,0-.31-.04-.47-.11-.27-.13-.46-.34-.56-.62-.1-.28-.08-.55.05-.82.12-.27.33-.45.62-.55l.36-.11c-.3.83-.3,1.57,0,2.23M10.41,10.92l.34.14c.27.12.46.32.58.59.11.28.11.56,0,.83-.11.28-.31.47-.58.58l-.33.08c.26-.7.26-1.44,0-2.22"/>
</svg>