<?xml version="1.0" encoding="UTF-8"?>
<svg id="Layer_1" xmlns="http://www.w3.org/2000/svg" viewBox="0 0 162 162">
  <defs>
    <style>
      .cls-1 {
      fill: #54bb71;
      }

      .cls-2 {
      fill: #4fba6f;
      }

      .cls-3 {
      fill: #5c5c5c;
      }

      .cls-4 {
      fill: #edbe1c;
      }

      .cls-5 {
      fill: #37b667;
      }

      .cls-6 {
      fill: #fff;
      }

      .cls-7 {
      fill: #5fbe73;
      }

      .cls-8 {
      fill: #ffcd05;
      }

      .cls-9 {
      fill: #ffd739;
      }

      .cls-10 {
      fill: #ddb226;
      }

      .cls-11 {
      fill: #f3f3f3;
      }
    </style>
  </defs>
  <path class="cls-7"
    d="M0,15.44v-4.43C0,3.67,3.65,0,10.95,0h140.1c7.3,0,10.95,3.67,10.95,11.01v4.43c-.21-6.92-3.86-10.38-10.95-10.38H10.95C3.86,5.06.21,8.52,0,15.44" />
  <path class="cls-1"
    d="M40.5,5.06h81c-1.81,12.66-5.44,23.94-10.88,33.86-8.18,15.02-18.06,22.53-29.62,22.53s-21.43-7.51-29.62-22.53c-5.4-9.91-9.03-21.2-10.88-33.86M74.86,27.84l.57-1.01c.67-1.39.95-2.78.82-4.18-.21-1.6-.91-2.76-2.09-3.48l-3.99-.06c-1.31.55-2.4,1.48-3.29,2.78l-.57,1.08c-1.69,2.91-2.7,5.63-3.04,8.16-.38,2.57.02,4.18,1.2,4.81,1.18.72,2.76.27,4.75-1.33,2.07-1.56,3.94-3.82,5.63-6.77M94.16,20.31l-.89-1.46c-1.31-1.98-2.95-3.4-4.94-4.24-2.24-.97-4.24-.95-6.01.06-1.81,1.05-2.85,2.78-3.1,5.19-.25,2.15.13,4.28,1.14,6.39l.89,1.52c2.57,4.39,5.36,7.78,8.35,10.19,3.08,2.4,5.53,3.08,7.34,2.02,1.77-1.01,2.36-3.44,1.77-7.28-.46-3.84-1.98-7.97-4.56-12.4" />
  <path class="cls-5"
    d="M94.16,20.31c2.57,4.43,4.09,8.56,4.56,12.4.59,3.84,0,6.26-1.77,7.28-1.81,1.05-4.26.38-7.34-2.02-3-2.4-5.78-5.8-8.35-10.19l-.89-1.52c-1.01-2.11-1.39-4.24-1.14-6.39.25-2.4,1.29-4.13,3.1-5.19,1.77-1.01,3.78-1.03,6.01-.06,1.98.84,3.63,2.26,4.94,4.24l.89,1.46M74.86,27.84c-1.69,2.95-3.56,5.21-5.63,6.77-1.98,1.6-3.56,2.05-4.75,1.33-1.18-.63-1.58-2.24-1.2-4.81.34-2.53,1.35-5.25,3.04-8.16l.57-1.08c.89-1.31,1.98-2.24,3.29-2.78l3.99.06c1.18.72,1.88,1.88,2.09,3.48.13,1.39-.15,2.78-.82,4.18l-.57,1.01" />
  <path class="cls-2"
    d="M162,15.44v128.59c-11.1,4.81-20.19,3.99-27.27-2.47l-.7-.63-3.04-4.05c-7.89-10.04-16.37-17.49-25.44-22.34l7.02-1.52c8.35-2.11,12.74-4.64,13.16-7.59v-.63c-.21-3.08-4.6-5.72-13.16-7.91l-6.2-1.33-.13-.57c-1.05-4.85-3.31-9.18-6.77-12.97l-2.97-2.85c-4.47-3.67-9.62-5.51-15.44-5.51s-11.01,1.84-15.44,5.51c-1.05.8-2.09,1.75-3.1,2.85-3.42,3.8-5.67,8.12-6.77,12.97l-.13.57-6.33,1.33c-8.44,2.15-12.78,4.77-13.04,7.85v.25l.06.44c.38,2.95,4.7,5.48,12.97,7.59l3.16.76c-9.45,4.72-18.25,12.19-26.39,22.4l-1.9,2.47-1.71,2.28c-5.23,6.75-12.72,7.89-22.46,3.42V15.44C.21,8.52,3.86,5.06,10.95,5.06h29.55c1.86,12.66,5.48,23.94,10.88,33.86,8.18,15.02,18.06,22.53,29.62,22.53s21.43-7.51,29.62-22.53c5.44-9.91,9.07-21.2,10.88-33.86h29.55c7.09,0,10.74,3.46,10.95,10.38M131.12,73.09c0-4.26-1.48-7.89-4.43-10.88-3.04-2.95-6.71-4.43-11.01-4.43-4.22,0-7.83,1.48-10.82,4.43-3.04,3-4.56,6.62-4.56,10.88s1.52,7.85,4.56,10.76c3,3.08,6.6,4.62,10.82,4.62,4.3,0,7.97-1.54,11.01-4.62,2.95-2.91,4.43-6.5,4.43-10.76M30.88,73.09c0,4.26,1.52,7.85,4.56,10.76,3.04,3.08,6.67,4.62,10.88,4.62,4.01,0,7.53-1.39,10.57-4.18l.44-.44c2.95-2.91,4.43-6.5,4.43-10.76s-1.48-7.89-4.43-10.88l-.44-.38c-3.04-2.7-6.56-4.05-10.57-4.05-4.22,0-7.85,1.48-10.88,4.43-3.04,3-4.56,6.62-4.56,10.88" />
  <path class="cls-6"
    d="M30.88,73.09c0-4.26,1.52-7.89,4.56-10.88,3.04-2.95,6.67-4.43,10.88-4.43,4.01,0,7.53,1.35,10.57,4.05l.44.38c2.95,3,4.43,6.62,4.43,10.88s-1.48,7.85-4.43,10.76l-.44.44c-3.04,2.78-6.56,4.18-10.57,4.18-4.22,0-7.85-1.54-10.88-4.62-3.04-2.91-4.56-6.5-4.56-10.76M123.71,73.41c0-2.78-.95-5.08-2.85-6.9-1.9-1.81-4.18-2.72-6.83-2.72-2.62,0-4.91.91-6.9,2.72-1.9,1.81-2.85,4.11-2.85,6.9,0,2.66.95,4.89,2.85,6.71,1.98,1.94,4.28,2.91,6.9,2.91,2.66,0,4.94-.97,6.83-2.91,1.9-1.81,2.85-4.05,2.85-6.71M131.12,73.09c0,4.26-1.48,7.85-4.43,10.76-3.04,3.08-6.71,4.62-11.01,4.62-4.22,0-7.83-1.54-10.82-4.62-3.04-2.91-4.56-6.5-4.56-10.76s1.52-7.89,4.56-10.88c3-2.95,6.6-4.43,10.82-4.43,4.3,0,7.97,1.48,11.01,4.43,2.95,3,4.43,6.62,4.43,10.88M38.41,73.41c0,2.66.95,4.89,2.85,6.71,1.81,1.94,4.07,2.91,6.77,2.91,2.66,0,4.94-.97,6.83-2.91.89-.84,1.56-1.77,2.03-2.78.55-1.18.82-2.49.82-3.92,0-1.48-.27-2.83-.82-4.05-.46-1.05-1.14-2-2.03-2.85-1.9-1.81-4.18-2.72-6.83-2.72-2.7,0-4.96.91-6.77,2.72-1.9,1.81-2.85,4.11-2.85,6.9" />
  <path class="cls-3"
    d="M38.41,73.41c0-2.78.95-5.08,2.85-6.9,1.81-1.81,4.07-2.72,6.77-2.72,2.66,0,4.94.91,6.83,2.72.89.84,1.56,1.79,2.03,2.85.55,1.22.82,2.57.82,4.05,0,1.43-.27,2.74-.82,3.92-.46,1.01-1.14,1.94-2.03,2.78-1.9,1.94-4.18,2.91-6.83,2.91-2.7,0-4.96-.97-6.77-2.91-1.9-1.81-2.85-4.05-2.85-6.71M123.71,73.41c0,2.66-.95,4.89-2.85,6.71-1.9,1.94-4.18,2.91-6.83,2.91-2.62,0-4.91-.97-6.9-2.91-1.9-1.81-2.85-4.05-2.85-6.71,0-2.78.95-5.08,2.85-6.9,1.98-1.81,4.28-2.72,6.9-2.72,2.66,0,4.94.91,6.83,2.72,1.9,1.81,2.85,4.11,2.85,6.9" />
  <path class="cls-9"
    d="M106.95,104.35l-.25-1.77-.44-2.53c-.34-1.65-.82-3.23-1.46-4.75-1.27-3-3.04-5.74-5.32-8.23l-2.97-2.85c-4.47-3.67-9.62-5.51-15.44-5.51s-11.01,1.84-15.44,5.51c-1.05.8-2.09,1.75-3.1,2.85-2.24,2.49-3.99,5.23-5.25,8.23-.63,1.52-1.14,3.1-1.52,4.75l-.51,2.53-.13,1.9-.06-.38-.06-1.9.25-4.68.38-1.96.13-.57c1.1-4.85,3.35-9.18,6.77-12.97,1.01-1.1,2.05-2.05,3.1-2.85,4.43-3.67,9.58-5.51,15.44-5.51s10.97,1.84,15.44,5.51l2.97,2.85c3.46,3.8,5.72,8.12,6.77,12.97l.13.57.32,1.96.38,4.68-.13,1.9v.25" />
  <path class="cls-8"
    d="M106.95,104.35l-.13,1.08-.57,1.96c-.76,1.98-2.09,3.82-3.99,5.51l-2.09,1.65-.7.44-.76.51-.51.32c-4.85,2.7-10.57,4.05-17.15,4.05s-12.36-1.35-17.21-4.05l-.51-.32-.82-.51-2.34-1.71-1.96-1.96c-1.1-1.27-1.9-2.59-2.4-3.99l-.51-1.9-.19-.95.13-1.9.51-2.53c.38-1.65.89-3.23,1.52-4.75,1.27-3,3.02-5.74,5.25-8.23,1.01-1.1,2.05-2.05,3.1-2.85,4.43-3.67,9.58-5.51,15.44-5.51s10.97,1.84,15.44,5.51l2.97,2.85c2.28,2.49,4.05,5.23,5.32,8.23.63,1.52,1.12,3.1,1.46,4.75l.44,2.53.25,1.77" />
  <path class="cls-4"
    d="M106.95,104.35v-.25l.13-1.9-.38-4.68-.32-1.96,6.2,1.33c8.56,2.19,12.95,4.83,13.16,7.91l-19.49,2.59.57-1.96.13-1.08M55.62,95.55l-.38,1.96-.25,4.68.06,1.9.06.38.19.95.51,1.9-19.55-2.59c.25-3.08,4.6-5.7,13.04-7.85l6.33-1.33" />
  <path class="cls-10"
    d="M55.81,107.32c.51,1.39,1.31,2.72,2.4,3.99l1.96,1.96,2.34,1.71.82.51-2.85-.32-2.97-.44-5.06-.95-3.16-.76c-8.27-2.11-12.59-4.64-12.97-7.59l-.06-.44v-.25l19.55,2.59M98.72,115.49l.76-.51.7-.44,2.09-1.65c1.9-1.69,3.23-3.52,3.99-5.51l19.49-2.59v.63c-.42,2.95-4.81,5.48-13.16,7.59l-7.02,1.52-4.05.63-.19.06-2.59.25" />
  <path class="cls-11"
    d="M98.72,115.49l2.59-.25.19-.06,4.05-.63c9.07,4.85,17.55,12.3,25.44,22.34l3.04,4.05.7.63c7.09,6.45,16.18,7.28,27.27,2.47v7.66c-.21,6.88-3.86,10.31-10.95,10.31H10.95c-7.09,0-10.74-3.44-10.95-10.31v-7.34c9.75,4.47,17.23,3.33,22.46-3.42l1.71-2.28,1.9-2.47c8.14-10.21,16.94-17.68,26.39-22.4l5.06.95,2.97.44,2.85.32.51.32c4.85,2.7,10.59,4.05,17.21,4.05s12.3-1.35,17.15-4.05l.51-.32" />
</svg>
