<?xml version="1.0" encoding="UTF-8"?>
<svg id="Layer_1" xmlns="http://www.w3.org/2000/svg" xmlns:xlink="http://www.w3.org/1999/xlink" viewBox="0 0 11.41 16">
  <defs>
    <style>
      .cls-1 {
        fill: #f06697;
      }

      .cls-2 {
        fill: url(#radial-gradient);
      }

      .cls-3 {
        fill: #c0d4e5;
      }

      .cls-4 {
        fill: #5393c5;
      }

      .cls-5 {
        fill: #fff;
      }

      .cls-6 {
        fill: #497da7;
      }

      .cls-7 {
        fill: #ffcd05;
      }

      .cls-8 {
        fill: #354f63;
      }
    </style>
    <radialGradient id="radial-gradient" cx="-28.71" cy="92.18" fx="-28.71" fy="92.18" r="2.4" gradientTransform="translate(49.06 100.1) scale(1.51 -1)" gradientUnits="userSpaceOnUse">
      <stop offset="0" stop-color="#010101" stop-opacity=".3"/>
      <stop offset="1" stop-color="#010101" stop-opacity="0"/>
    </radialGradient>
  </defs>
  <g id="leg_0_Layer0_0_FILL">
    <path class="cls-8" d="M9.05,15.47l-1.01-1.06h-1.02v-.77c0-.15-.05-.27-.16-.38-.11-.11-.23-.16-.38-.16h0c-.15,0-.27.05-.38.16-.05.05-.09.11-.12.18-.02.06-.04.13-.04.2l-.05,2.35h3.16l.02-.53M6.48,13.42c.07,0,.13.03.19.08.05.05.08.11.08.19s-.03.13-.08.19c-.05.05-.11.08-.19.08-.07,0-.13-.03-.19-.08s-.08-.11-.08-.19.03-.13.08-.19c.05-.05.11-.08.19-.08Z"/>
    <path class="cls-6" d="M6.66,13.5c-.05-.05-.11-.08-.19-.08s-.13.03-.19.08c-.05.05-.08.11-.08.19s.03.13.08.19.11.08.19.08c.07,0,.13-.03.19-.08.05-.05.08-.11.08-.19s-.03-.13-.08-.19M8.15,11.91c0-.28-.11-.52-.33-.72-.22-.2-.48-.3-.8-.3s-.58.1-.8.3c-.22.2-.33.44-.33.72l.09,1.53c.03-.06.07-.12.12-.18.11-.11.23-.16.38-.16h0c.15,0,.27.05.38.16.11.11.16.23.16.38v.77h1.03l.11-2.5Z"/>
  </g>
  <g id="leg_0_Layer0_0_FILL-2" data-name="leg_0_Layer0_0_FILL">
    <path class="cls-8" d="M2.35,15.47l1.01-1.06h1.02v-.77c0-.15.05-.27.16-.38.11-.11.23-.16.38-.16h0c.15,0,.27.05.38.16.05.05.09.11.12.18.02.06.04.13.04.2l.05,2.35h-3.16l-.02-.53M4.93,13.42c-.07,0-.13.03-.19.08-.05.05-.08.11-.08.19s.03.13.08.19c.05.05.11.08.19.08.07,0,.13-.03.19-.08s.08-.11.08-.19-.03-.13-.08-.19c-.05-.05-.11-.08-.19-.08Z"/>
    <path class="cls-6" d="M4.74,13.5c.05-.05.11-.08.19-.08s.13.03.19.08c.05.05.08.11.08.19s-.03.13-.08.19-.11.08-.19.08c-.07,0-.13-.03-.19-.08-.05-.05-.08-.11-.08-.19s.03-.13.08-.19M3.25,11.91c0-.28.11-.52.33-.72.22-.2.48-.3.8-.3s.58.1.8.3c.22.2.33.44.33.72l-.09,1.53c-.03-.06-.07-.12-.12-.18-.11-.11-.23-.16-.38-.16h0c-.15,0-.27.05-.38.16-.11.11-.16.23-.16.38v.77h-1.03l-.11-2.5Z"/>
  </g>
  <g id="arm_0_Layer0_0_FILL">
    <path class="cls-6" d="M9.96,11.16c-.15,0-.3-.03-.43-.09.09.33.14.68.15,1.06,0,.19.09.35.24.48.14.13.31.19.51.19.2,0,.37-.08.51-.22.13-.15.19-.31.19-.5-.02-.53-.1-1.03-.23-1.5-.05.11-.12.21-.21.3-.2.19-.44.28-.72.28M9.96,9.18c.12,0,.23.02.33.05-.34-.54-.79-1.01-1.36-1.4-.16-.12-.35-.16-.55-.13-.2.03-.36.12-.47.27-.12.15-.17.33-.14.52.04.19.13.34.29.46.36.26.67.56.91.91.05-.14.13-.27.25-.39.21-.19.45-.29.73-.29M9.72,9.82s-.04.05-.06.08c-.05.08-.08.16-.08.26,0,.14.05.25.14.34.1.09.22.14.36.14.11,0,.2-.02.28-.07.02-.02.05-.05.07-.07.05-.04.08-.08.11-.11.04-.07.05-.15.05-.23,0-.14-.05-.25-.16-.34-.09-.09-.21-.14-.35-.14-.09,0-.16.02-.23.05-.05.02-.09.05-.13.09Z"/>
    <path class="cls-8" d="M10.9,10.58c.06-.12.1-.26.1-.41,0-.27-.1-.51-.31-.71-.11-.11-.24-.19-.39-.24-.1-.04-.21-.05-.33-.05-.28,0-.53.1-.73.29-.12.12-.2.25-.25.39-.04.1-.05.21-.05.32,0,.27.1.51.3.71.09.09.19.15.3.19.13.06.28.09.43.09.28,0,.52-.09.72-.28.09-.09.16-.19.21-.3M9.66,9.9s.04-.06.06-.08c.04-.04.09-.06.13-.09.06-.04.14-.05.23-.05.14,0,.26.05.35.14.11.09.16.21.16.34,0,.08-.02.16-.05.23-.02.04-.06.07-.11.11-.02.02-.05.05-.07.07-.08.05-.18.07-.28.07-.14,0-.26-.05-.36-.14-.09-.09-.14-.21-.14-.34,0-.1.03-.19.08-.26Z"/>
  </g>
  <g id="arm_0_Layer0_0_FILL-2" data-name="arm_0_Layer0_0_FILL">
    <path class="cls-6" d="M1.45,11.16c.15,0,.3-.03.43-.09-.09.33-.14.68-.15,1.06,0,.19-.09.35-.24.48-.14.13-.31.19-.51.19-.2,0-.37-.08-.51-.22-.13-.15-.19-.31-.19-.5.02-.53.1-1.03.23-1.5.05.11.12.21.21.3.2.19.44.28.72.28M1.45,9.18c-.12,0-.23.02-.33.05.34-.54.79-1.01,1.36-1.4.16-.12.35-.16.55-.13.2.03.36.12.47.27.12.15.17.33.14.52-.04.19-.13.34-.29.46-.36.26-.67.56-.91.91-.05-.14-.13-.27-.25-.39-.21-.19-.45-.29-.73-.29M1.68,9.82s.04.05.06.08c.05.08.08.16.08.26,0,.14-.05.25-.14.34-.1.09-.22.14-.36.14-.11,0-.2-.02-.28-.07-.02-.02-.05-.05-.07-.07-.05-.04-.08-.08-.11-.11-.04-.07-.05-.15-.05-.23,0-.14.05-.25.16-.34.09-.09.21-.14.35-.14.09,0,.16.02.23.05.05.02.09.05.13.09Z"/>
    <path class="cls-8" d="M.51,10.58c-.06-.12-.1-.26-.1-.41,0-.27.1-.51.31-.71.11-.11.24-.19.39-.24.1-.04.21-.05.33-.05.28,0,.53.1.73.29.12.12.2.25.25.39.04.1.05.21.05.32,0,.27-.1.51-.3.71-.09.09-.19.15-.3.19-.13.06-.28.09-.43.09-.28,0-.52-.09-.72-.28-.09-.09-.16-.19-.21-.3M1.75,9.9s-.04-.06-.06-.08c-.04-.04-.09-.06-.13-.09-.06-.04-.14-.05-.23-.05-.14,0-.26.05-.35.14-.11.09-.16.21-.16.34,0,.08.02.16.05.23.02.04.06.07.11.11.02.02.05.05.07.07.08.05.18.07.28.07.14,0,.26-.05.36-.14.09-.09.14-.21.14-.34,0-.1-.03-.19-.08-.26Z"/>
  </g>
  <g>
    <g id="body_0_Layer0_0_FILL">
      <path class="cls-8" d="M3.42,8.81c.23-.22.34-.49.34-.81s-.11-.59-.34-.81c-.22-.22-.49-.33-.81-.33s-.58.11-.8.33c-.22.22-.33.49-.33.81s.11.59.33.81c.22.22.48.33.8.33s.59-.11.81-.33M9.42,8.81c.22-.22.33-.49.33-.81s-.11-.59-.33-.81-.49-.33-.81-.33-.58.11-.8.33c-.23.22-.34.49-.34.81s.11.59.34.81c.22.22.48.33.8.33s.59-.11.81-.33Z"/>
    </g>
    <g id="body_0_Layer0_1_FILL">
      <path class="cls-4" d="M7.98,12.84c.16-.23.25-.54.26-.93H2.97c.01.39.1.7.26.93h4.74Z"/>
      <path class="cls-8" d="M7.07,11.04c.16-.26.24-.55.24-.88,0-.47-.16-.87-.49-1.21-.33-.33-.74-.5-1.21-.5s-.87.17-1.21.5c-.33.33-.5.74-.5,1.21,0,.33.08.62.25.88h-1.17v.88h5.27v-.88h-1.17M6.5,9.88l-.29.93s-.02.04-.04.06c-.02.02-.05.03-.08.03h-.93s-.05,0-.07-.03c-.03-.02-.05-.04-.05-.06l-.29-.93s0-.06,0-.09c.01-.02.03-.05.05-.07l.76-.56s.04-.03.07-.03c.02,0,.05,0,.08.03l.75.56s.03.05.04.07c0,.03,0,.06,0,.09Z"/>
      <path class="cls-1" d="M6.21,10.81l.29-.93s0-.06,0-.09c-.01-.02-.03-.05-.04-.07l-.75-.56s-.06-.03-.08-.03c-.03,0-.05,0-.07.03l-.76.56s-.04.05-.05.07c0,.03,0,.06,0,.09l.29.93s.02.04.05.06c.02.02.05.03.07.03h.93s.06,0,.08-.03c.02-.02.04-.04.04-.06Z"/>
      <path class="cls-6" d="M8.82,8.61c.15-.59.01-.9-.4-.93h-.94v-.04s0-.06,0-.09c0-.44-.18-.82-.54-1.14-.37-.3-.81-.45-1.33-.45s-.96.15-1.33.45c-.36.32-.54.7-.54,1.14,0,.03,0,.06,0,.09,0,.02,0,.03,0,.04h-.91c-.43-.02-.58.29-.46.93l.57,2.42h1.17c-.16-.26-.25-.55-.25-.88,0-.47.17-.87.5-1.21.33-.33.74-.5,1.21-.5s.87.17,1.21.5c.33.33.49.74.49,1.21,0,.33-.08.62-.24.88h1.17l.57-2.42Z"/>
    </g>
  </g>
  <g id="hand_0_Layer0_0_FILL">
    <path class="cls-3" d="M10.15,14.34s-.02,0-.03,0c-.01.02-.02.04-.03.06v.62s0,.04.03.07c.01,0,.03,0,.04,0,.33,0,.61-.13.85-.36h0c.25-.25.38-.55.39-.9,0-.36-.11-.66-.34-.91l-.03-.03c0,.07-.01.13-.04.19-.06.22-.19.4-.39.52.03.06.04.13.04.2-.01.14-.06.25-.14.35,0,0-.01,0-.03,0-.09.09-.2.14-.34.15M9.34,12.39s-.1.02-.15.04c-.33.08-.59.27-.78.57-.18.31-.23.63-.15.97v.02c.09.32.27.57.55.75.02.01.04.02.05.02.01,0,.02-.02.03-.04l.34-.54s.02-.02.02-.04c-.01-.02-.02-.04-.04-.05-.11-.07-.18-.17-.21-.3v-.02c-.03-.13,0-.25.06-.37.06-.09.13-.16.21-.2-.07-.19-.08-.39-.03-.59.02-.08.05-.15.09-.22Z"/>
    <path class="cls-4" d="M10.92,12.41c-.12-.22-.3-.36-.54-.44-.24-.07-.47-.04-.7.08-.15.09-.26.2-.34.33-.04.07-.07.14-.09.22-.05.2-.04.4.03.59.02.04.03.08.05.11.12.22.31.36.55.43.24.06.47.04.69-.08.02,0,.03-.02.04-.04.2-.12.33-.3.39-.52.02-.06.03-.13.04-.19.02-.17-.02-.34-.11-.5Z"/>
  </g>
  <g id="hand_0_Layer0_0_FILL-2" data-name="hand_0_Layer0_0_FILL">
    <path class="cls-3" d="M1.26,14.34s.02,0,.03,0c.01.02.02.04.03.06v.62s0,.04-.03.07c-.01,0-.03,0-.04,0-.33,0-.61-.13-.85-.36h0C.14,14.5.01,14.2,0,13.85c0-.36.11-.66.34-.91l.03-.03c0,.07.01.13.04.19.06.22.19.4.39.52-.03.06-.04.13-.04.2.01.14.06.25.14.35,0,0,.01,0,.03,0,.09.09.2.14.34.15M2.06,12.39s.1.02.15.04c.33.08.59.27.78.57.18.31.23.63.15.97v.02c-.09.32-.27.57-.55.75-.02.01-.04.02-.05.02-.01,0-.02-.02-.03-.04l-.34-.54s-.02-.02-.02-.04c.01-.02.02-.04.04-.05.11-.07.18-.17.21-.3v-.02c.03-.13,0-.25-.06-.37-.06-.09-.13-.16-.21-.2.07-.19.08-.39.03-.59-.02-.08-.05-.15-.09-.22Z"/>
    <path class="cls-4" d="M.49,12.41c.12-.22.3-.36.54-.44.24-.07.47-.04.7.08.15.09.26.2.34.33.04.07.07.14.09.22.05.2.04.4-.03.59-.02.04-.03.08-.05.11-.12.22-.31.36-.55.43-.24.06-.47.04-.69-.08-.02,0-.03-.02-.04-.04-.2-.12-.33-.3-.39-.52-.02-.06-.03-.13-.04-.19-.02-.17.02-.34.11-.5Z"/>
  </g>
  <g id="shadow_0_Layer0_0_FILL">
    <path class="cls-2" d="M8.29,6.23c-.69-.46-1.53-.69-2.51-.69s-1.83.23-2.54.69c-.69.47-1.04,1.03-1.04,1.68s.35,1.21,1.04,1.67c.71.47,1.55.71,2.54.71s1.82-.24,2.51-.71c.71-.46,1.06-1.01,1.06-1.67s-.35-1.21-1.06-1.68Z"/>
  </g>
  <g>
    <g id="head_0_Layer0_0_FILL">
      <path class="cls-3" d="M8.12,5.27c.61-.6.91-1.33.91-2.18s-.3-1.58-.91-2.19c-.61-.61-1.33-.91-2.19-.91s-1.58.3-2.19.91c-.61.61-.91,1.33-.91,2.19s.3,1.58.91,2.18c.61.61,1.33.92,2.19.92s1.58-.31,2.19-.92M7.69,3.09c0,.48-.17.89-.51,1.23-.35.35-.76.52-1.24.52s-.89-.17-1.23-.52c-.35-.34-.52-.75-.52-1.23s.17-.89.52-1.23c.34-.35.75-.52,1.23-.52s.9.17,1.24.52c.34.34.51.75.51,1.23Z"/>
      <path class="cls-5" d="M7.18,4.33c.34-.34.51-.75.51-1.23s-.17-.89-.51-1.23c-.35-.35-.76-.52-1.24-.52s-.89.17-1.23.52c-.35.34-.52.75-.52,1.23s.17.89.52,1.23c.34.35.75.52,1.23.52s.9-.17,1.24-.52Z"/>
    </g>
    <g id="head_0_Layer0_1_FILL">
      <path class="cls-6" d="M3.21,1.15c-.11.06-.19.16-.22.29l-.39,1.45c-.04.13-.02.26.04.38.08.11.18.19.31.22h0c.13.04.25.02.37-.04.12-.08.19-.18.23-.31l.38-1.45c.04-.13.02-.25-.05-.37-.06-.12-.16-.19-.28-.23h0c-.13-.04-.26-.02-.39.05Z"/>
    </g>
    <g id="head_0_Layer0_2_FILL">
      <path class="cls-6" d="M8.9,1.45c-.04-.13-.11-.23-.22-.29-.13-.07-.26-.09-.39-.05h0c-.13.04-.23.11-.29.23-.07.12-.09.24-.05.37l.39,1.45c.04.13.11.23.23.31.12.06.24.07.37.04h0c.12-.04.22-.11.3-.22.06-.12.08-.25.04-.38l-.38-1.45Z"/>
    </g>
    <g id="head_0_Layer0_3_FILL">
      <path class="cls-4" d="M1.68,4.58c-.28.28-.41.61-.41,1s.14.72.41.99c.28.28.61.42,1,.42s.72-.14,1-.42c.27-.27.41-.6.41-.99s-.14-.72-.41-1c-.28-.28-.62-.42-1-.42-.38,0-.71.14-1,.42M2.09,6.18c-.16-.16-.25-.36-.25-.6s.08-.43.25-.6c.16-.16.36-.25.59-.25.24,0,.44.08.61.25.16.17.25.37.25.6,0,.24-.08.43-.25.6-.16.17-.37.26-.61.26s-.43-.09-.59-.26M8.21,4.58c-.28.28-.41.61-.41,1s.14.72.41.99c.28.28.61.42,1,.42s.72-.14,1-.42c.27-.27.41-.6.41-.99s-.14-.72-.41-1c-.28-.28-.62-.42-1-.42-.38,0-.71.14-1,.42M8.61,4.98c.16-.16.36-.25.59-.25s.44.08.61.25c.16.17.25.37.25.6s-.08.43-.25.6c-.17.17-.37.26-.61.26s-.43-.09-.59-.26c-.17-.16-.26-.36-.26-.6s.09-.43.26-.6Z"/>
      <path class="cls-6" d="M1.84,5.58c0,.24.08.43.25.6.16.17.36.26.59.26.24,0,.44-.09.61-.26.16-.16.25-.36.25-.6,0-.23-.08-.43-.25-.6-.16-.16-.37-.25-.61-.25s-.43.08-.59.25c-.16.17-.25.37-.25.6M9.2,4.73c-.23,0-.43.08-.59.25-.17.17-.26.37-.26.6s.09.43.26.6c.16.17.36.26.59.26s.44-.09.61-.26c.16-.16.25-.36.25-.6s-.08-.43-.25-.6c-.17-.16-.37-.25-.61-.25Z"/>
    </g>
    <g id="head_0_Layer0_4_FILL">
      <path class="cls-8" d="M2.82,7.93h1.41c0-1.15-.55-1.9-1.64-2.24l.23,2.24M8.09,7.93c.63-.08.99-.42,1.08-1l.16-1.54c-1.06.55-1.62,1.4-1.66,2.55h.42Z"/>
      <path class="cls-4" d="M9.33,5.39l.31-2.98H2.26l.33,3.29c1.09.34,1.63,1.09,1.64,2.24h3.44c.04-1.15.59-2,1.66-2.55Z"/>
    </g>
    <g id="head_0_Layer0_5_FILL">
      <path class="cls-6" d="M6.99,5.71c.28-.28.41-.61.41-1,0-.39-.14-.73-.41-1-.28-.28-.61-.41-1-.41s-.73.14-1,.41c-.28.27-.41.6-.41,1s.14.72.41,1c.27.28.6.41,1,.41s.72-.14,1-.41M6.94,4.72c0,.26-.09.48-.28.66-.18.19-.4.28-.66.28s-.49-.09-.68-.28c-.18-.18-.27-.4-.27-.66s.09-.49.27-.68c.19-.18.41-.26.68-.26.26,0,.48.09.66.26.19.19.28.41.28.68Z"/>
      <path class="cls-7" d="M6.66,5.38c.19-.18.28-.4.28-.66s-.09-.49-.28-.68c-.18-.18-.4-.26-.66-.26-.26,0-.49.09-.68.26-.18.19-.27.41-.27.68s.09.48.27.66c.19.19.41.28.68.28s.48-.09.66-.28M6.54,4.72c0,.11-.04.19-.11.26-.06.08-.15.11-.26.11s-.2-.04-.27-.11c-.07-.07-.11-.16-.11-.26s.04-.2.11-.27c.08-.07.17-.11.27-.11.11,0,.19.04.26.11.08.08.11.17.11.27Z"/>
      <path class="cls-5" d="M6.43,4.98c.08-.07.11-.16.11-.26,0-.11-.04-.2-.11-.27-.06-.07-.15-.11-.26-.11-.11,0-.2.04-.27.11-.07.08-.11.17-.11.27s.04.19.11.26c.08.08.17.11.27.11s.19-.04.26-.11Z"/>
    </g>
    <g id="head_0_Layer0_6_FILL">
      <path class="cls-3" d="M6.9,6.73s0-.07,0-.1c-.04-.01-.09-.02-.13-.02h-1.67s-.08,0-.12.02c0,.03,0,.06,0,.1h0c0,.12.04.21.11.29.08.08.18.12.29.12h1.14c.11,0,.21-.04.28-.12.08-.08.12-.17.12-.28h0Z"/>
      <path class="cls-8" d="M7.28,7.13c0-.14-.05-.26-.16-.37-.07-.07-.15-.11-.23-.13,0,.03,0,.06,0,.1h0c0,.12-.04.21-.12.29-.08.08-.17.12-.28.12h-1.14c-.11,0-.21-.04-.29-.12-.07-.08-.11-.17-.11-.28h0s0-.08,0-.11c-.09.02-.17.06-.24.13-.1.11-.15.23-.15.37s.05.26.15.36c.11.11.23.16.36.16h1.67c.14,0,.26-.05.36-.16.11-.1.16-.22.16-.36Z"/>
    </g>
    <g id="head_0_Layer0_7_FILL">
      <path class="cls-6" d="M8.7,5.13c.11-.1.16-.22.16-.36s-.05-.26-.16-.37c-.1-.1-.22-.15-.36-.15-.14,0-.26.05-.37.15-.1.11-.15.23-.15.37s.05.26.15.36c.11.1.23.15.37.15.14,0,.26-.05.36-.15Z"/>
    </g>
    <g id="head_0_Layer0_8_FILL">
      <path class="cls-6" d="M3.99,5.13c.11-.1.16-.22.16-.36s-.05-.26-.16-.37c-.1-.1-.22-.15-.35-.15-.14,0-.26.05-.37.15-.1.11-.15.23-.15.37s.05.26.15.36c.11.1.23.15.37.15.14,0,.25-.05.35-.15Z"/>
    </g>
  </g>
</svg>