<?xml version="1.0" encoding="UTF-8"?>
<svg id="Layer_1" xmlns="http://www.w3.org/2000/svg" xmlns:xlink="http://www.w3.org/1999/xlink" viewBox="0 0 16.25 16">
  <defs>
    <style>
      .cls-1 {
        fill: #4e51a3;
      }

      .cls-2 {
        fill: url(#radial-gradient);
      }

      .cls-3 {
        fill: #bf7959;
      }

      .cls-4 {
        fill: #c0d4e5;
      }

      .cls-5 {
        fill: #e8f4fc;
      }

      .cls-6 {
        fill: #696ab1;
      }

      .cls-7 {
        fill: #eea161;
      }

      .cls-8 {
        fill: #464b52;
      }

      .cls-9 {
        fill: #fff;
      }

      .cls-10 {
        fill: #3d3f42;
      }

      .cls-11 {
        fill: #d78b49;
      }

      .cls-12 {
        fill: #955536;
      }

      .cls-13 {
        fill: #a86040;
      }
    </style>
    <radialGradient id="radial-gradient" cx="-669.07" cy="342.15" fx="-669.07" fy="342.15" r="2.36" gradientTransform="translate(818.51 350.15) scale(1.21 -1)" gradientUnits="userSpaceOnUse">
      <stop offset="0" stop-color="#010101" stop-opacity=".3"/>
      <stop offset="1" stop-color="#010101" stop-opacity="0"/>
    </radialGradient>
  </defs>
  <path class="cls-13" d="M1.67,10.27l.16-.05c.64-.33,1.07-.74,1.29-1.24-.31,1.21-.79,1.65-1.45,1.31h0Z"/>
  <path class="cls-3" d="M.1,9.37c-.37-.91.25-1.66,1.84-2.25l.14-.06c.15-.05.25,0,.32.15l.71,1.76c-.22.5-.65.92-1.29,1.24l-.16.05h0c-.17.09-.36.17-.56.24l-.06.03"/>
  <g>
    <g id="arm_0_Layer0_0_FILL">
      <path class="cls-3" d="M3.68,6.91c.42-.01.85.02,1.29.09.09.66-.02,1.34-.35,2.05-.18-.03-.36-.06-.54-.07-.41-.03-.82.01-1.24.12-.27.08-.53.04-.77-.1-.24-.15-.41-.36-.49-.63-.07-.27-.03-.53.11-.78.13-.25.34-.41.62-.49.33-.09.65-.14.97-.18.14-.02.27-.03.41-.03Z"/>
      <path class="cls-5" d="M7.05,8.07c.1.27.09.53-.02.79-.12.26-.31.43-.58.53-.26.1-.52.1-.78-.01-.35-.16-.7-.27-1.05-.33.32-.71.44-1.39.35-2.05.52.1,1.03.27,1.55.5.25.12.42.31.53.57Z"/>
    </g>
    <g id="arm_0_Layer0_1_FILL">
      <path class="cls-4" d="M4.66,6.66l.71.1-.39,2.56-.7-.1.38-2.57Z"/>
    </g>
  </g>
  <path class="cls-13" d="M15.55,10.28l-.16-.05c-.71-.13-1.3-.06-1.78.21.98-.78,1.63-.83,1.95-.16h-.01Z"/>
  <path class="cls-3" d="M16.25,11.95c-.26.95-1.2,1.17-2.83.67l-.15-.04c-.15-.05-.2-.15-.16-.31l.5-1.83c.48-.27,1.07-.34,1.78-.21l.16.05h.01c.19.04.38.09.59.15"/>
  <g>
    <g id="arm_0_Layer0_0_FILL-2" data-name="arm_0_Layer0_0_FILL">
      <path class="cls-3" d="M12.01,11.94c-.37-.2-.73-.44-1.07-.72.25-.62.69-1.15,1.33-1.6.14.12.28.23.43.33.34.23.72.4,1.13.51.27.07.48.23.62.47.14.25.18.51.11.79-.08.27-.24.48-.49.62-.24.15-.5.18-.78.11-.33-.09-.63-.2-.92-.33-.13-.05-.25-.11-.37-.18Z"/>
      <path class="cls-5" d="M9.67,9.25c.05-.28.19-.5.42-.68.23-.16.49-.22.76-.17.28.04.5.17.67.4.22.31.47.58.75.81-.63.45-1.08.98-1.33,1.6-.4-.35-.76-.75-1.09-1.21-.15-.23-.21-.48-.18-.76Z"/>
    </g>
    <g id="arm_0_Layer0_1_FILL-2" data-name="arm_0_Layer0_1_FILL">
      <path class="cls-4" d="M11.03,11.66l-.57-.44,1.62-2.02.56.43-1.61,2.03Z"/>
    </g>
  </g>
  <g id="leg_0_Layer0_0_FILL">
    <path class="cls-1" d="M12.19,13.4l-.6-.6-1.42,1.5.6.6,1.41-1.5h0Z"/>
    <path class="cls-9" d="M13.61,13.38l-1.43.03-1.41,1.5.71.73,2.12-2.25Z"/>
    <path class="cls-7" d="M13.97,13.74l-.36-.36-2.12,2.25.35.37,2.13-2.26Z"/>
    <path class="cls-6" d="M10.5,11.66c-.2-.19-.44-.27-.73-.24-.29.02-.54.15-.75.38s-.32.48-.33.77c-.01.29.08.53.28.72l1.21,1,1.42-1.5-1.09-1.13Z"/>
  </g>
  <g id="leg_0_Layer0_0_FILL-2" data-name="leg_0_Layer0_0_FILL">
    <path class="cls-1" d="M4.28,13.87l.79-.33-.85-1.88-.79.33.85,1.87h0Z"/>
    <path class="cls-9" d="M3.76,15.19l.52-1.33-.85-1.87-.95.38,1.28,2.82Z"/>
    <path class="cls-7" d="M3.29,15.39l.47-.2-1.28-2.82-.48.19,1.28,2.83Z"/>
    <path class="cls-6" d="M6.53,12.96c.25-.11.41-.31.5-.59.09-.27.07-.55-.06-.84s-.32-.48-.59-.6c-.27-.12-.52-.12-.77-.01l-1.39.74.85,1.88,1.46-.58Z"/>
  </g>
  <g>
    <g id="body_0_Layer0_0_FILL">
      <path class="cls-4" d="M10.29,12.55l.13-.85-4.81-.76-.13.85,4.81.76Z"/>
      <path class="cls-6" d="M9.91,13.41c.18-.19.31-.48.38-.85l-4.81-.76c-.05.38-.02.69.1.93l4.33.68Z"/>
      <path class="cls-5" d="M11.31,9.44c.21-.6.12-.92-.28-.96l-5.01-.79c-.39-.08-.57.19-.56.83l.15,2.42,4.81.76.88-2.26Z"/>
    </g>
    <g id="body_0_Layer0_0_MEMBER_0_FILL">
      <path class="cls-13" d="M10.02,7.02c-.29-.34-.67-.55-1.14-.63s-.89,0-1.28.25c-.38.26-.6.6-.67,1.03,0,.03,0,.06,0,.09-.05.39.06.75.33,1.07.29.36.67.58,1.13.65s.9-.02,1.28-.27c.35-.23.57-.53.64-.92,0-.03.02-.06.02-.08.07-.43-.04-.82-.32-1.18Z"/>
    </g>
    <g id="body_0_Layer0_0_MEMBER_1_FILL">
      <path class="cls-11" d="M7.58,11.29l-2.29-.14c0,.29,0,.59,0,.91l2.03.06c.09-.25.18-.53.26-.83Z"/>
      <path class="cls-7" d="M7.58,11.29c.1-.39.18-.82.24-1.29-.64-.6-1.1-1.43-1.36-2.48l-.7-.26c-.29.39-.44,1.68-.47,3.89l2.29.14Z"/>
    </g>
    <g id="body_0_Layer0_0_MEMBER_2_FILL">
      <path class="cls-11" d="M10.75,12.01l-2.22-.57c-.02.31-.02.6,0,.87l1.95.57c.1-.31.19-.6.28-.87Z"/>
      <path class="cls-7" d="M8.69,10.14c-.08.46-.14.89-.16,1.3l2.22.57c.65-2.1.91-3.39.75-3.84l-.75.03c-.58.92-1.26,1.57-2.06,1.94Z"/>
    </g>
    <g id="body_0_Layer0_0_MEMBER_3_FILL">
      <path class="cls-4" d="M6.54,7.6l-.43.57,1.89,1.63.43-.57-1.89-1.63M10.73,8.26l-2.3.96.23.68,2.3-.97-.23-.67Z"/>
      <path class="cls-5" d="M8.66,9.91l-.23-.68-.43.57.66.1Z"/>
    </g>
  </g>
  <g id="shadow_0_Layer0_0_FILL">
    <path class="cls-2" d="M10.66,6.34c-.55-.45-1.21-.68-1.99-.68s-1.45.23-2.01.68c-.55.46-.82,1.02-.82,1.66s.27,1.19.82,1.64c.56.46,1.23.69,2.01.69s1.44-.23,1.99-.69c.56-.45.84-1,.84-1.64s-.28-1.19-.84-1.66Z"/>
  </g>
  <g>
    <g id="headFocus_0_Layer0_0_FILL">
      <path class="cls-8" d="M12.32,1.4l-.38-.86C10.29.17,8.71-.02,7.22,0c-.84,0-1.27.33-1.29,1v.3c.16-.39.56-.58,1.19-.58,1.49-.01,3.07.17,4.72.56l.48.12M14.01,2.43l.06-.21c.18-.63-.08-1.07-.76-1.31l-.88.53.78.2c.48.17.75.43.8.8Z"/>
      <path class="cls-10" d="M13.21,1.63l-.78-.2-.08.04-.03-.08-.48-.12c-1.65-.38-3.22-.57-4.72-.56-.63,0-1.03.19-1.2.58l-.11,3.39c-.01.51.28.8.87.89l5.34.8c.6.09.96-.11,1.09-.6l.9-3.35c-.06-.37-.32-.63-.8-.8Z"/>
    </g>
    <g id="headFocus_0_Layer0_1_FILL">
      <path class="cls-3" d="M5.31,4.53c-.31.23-.49.53-.55.92s.03.73.26,1.04c.23.32.54.51.91.57s.72-.04,1.04-.27c.3-.23.48-.54.54-.92s-.03-.73-.25-1.04c-.23-.32-.54-.51-.92-.57s-.72.04-1.03.28M5.47,6.16c-.14-.18-.19-.39-.15-.63s.14-.41.33-.56c.18-.14.39-.19.61-.15.23.04.42.14.56.33.13.2.19.4.15.63-.04.23-.14.42-.33.56-.18.14-.39.2-.63.16s-.4-.14-.54-.33M11.66,5.48c-.31.23-.49.53-.55.92s.03.73.26,1.04c.23.32.54.51.91.57s.72-.04,1.04-.27c.3-.23.48-.54.54-.92s-.03-.73-.25-1.04c-.23-.32-.54-.51-.92-.57s-.72.04-1.03.28M11.99,5.93c.18-.14.39-.19.61-.15s.41.14.56.33c.13.2.19.4.15.63-.04.23-.14.42-.33.56-.19.14-.4.19-.63.16s-.4-.14-.54-.33c-.14-.18-.2-.39-.16-.63s.15-.41.34-.56Z"/>
      <path class="cls-13" d="M5.31,5.53c-.04.23.02.44.15.63.14.19.31.3.54.33.23.04.44-.02.63-.16.18-.14.29-.32.33-.56.03-.22-.02-.43-.15-.63-.14-.18-.32-.29-.56-.33s-.43.02-.61.15c-.19.15-.3.33-.33.56M12.61,5.77c-.22-.03-.43.02-.61.15-.19.15-.3.33-.34.56-.04.23.02.44.16.63.14.19.31.3.54.33s.44-.02.63-.16c.18-.14.29-.32.33-.56s-.02-.43-.15-.63c-.14-.18-.33-.29-.56-.33Z"/>
    </g>
    <g id="headFocus_0_Layer0_2_FILL">
      <path class="cls-3" d="M11.05,8.77c.63.01,1.03-.27,1.2-.84l1.12-4.4-7.18-1.07-.27,5.54,5.13.77Z"/>
    </g>
    <g id="headFocus_0_Layer0_3_FILL">
      <path class="cls-9" d="M7.18,5.71c-.03.2,0,.38.11.54.11.18.27.28.48.31.19.03.37-.02.52-.16.15-.12.24-.29.27-.49s-.01-.38-.12-.54c-.11-.17-.26-.27-.46-.3-.21-.03-.39.02-.55.15-.15.12-.24.29-.27.49M7.61,5.8v-.04c.03-.12.09-.22.17-.29.09-.08.2-.11.31-.09.12.02.21.08.28.18.06.1.09.21.07.33v.04c-.03.11-.08.21-.17.28-.09.08-.2.11-.32.09s-.2-.08-.27-.18c-.06-.1-.09-.2-.08-.32M10.91,5.51c-.2-.03-.38.02-.55.15-.15.12-.24.29-.27.49s0,.38.11.54c.12.18.28.28.48.31.2.03.37-.02.52-.16.16-.12.26-.28.29-.48.03-.2-.02-.38-.14-.55-.1-.17-.25-.27-.45-.29M10.94,5.94c.07.1.09.21.08.33v.04c-.03.11-.09.21-.18.28-.09.08-.19.11-.3.1s-.21-.08-.29-.18c-.06-.1-.08-.2-.07-.32v-.06c.03-.11.08-.2.16-.28.11-.08.22-.11.33-.09s.2.08.26.18Z"/>
      <path class="cls-10" d="M7.61,5.75v.04c-.02.12,0,.22.07.32.07.1.16.16.27.18.12.02.23-.01.32-.09.09-.07.14-.17.17-.28v-.04c.02-.12,0-.23-.07-.33-.07-.1-.16-.16-.28-.18s-.22.01-.31.09c-.09.07-.14.17-.17.29M11.02,6.26c.01-.12-.02-.23-.08-.33-.06-.1-.15-.16-.26-.18s-.22.01-.33.09c-.08.08-.13.17-.16.28v.06c-.02.12,0,.22.06.32.08.11.17.17.29.18s.22-.01.3-.1c.09-.07.15-.17.17-.28v-.04Z"/>
    </g>
    <g id="headFocus_0_Layer0_3_MEMBER_0_FILL">
      <path class="cls-10" d="M7.16,4.56l-.15.49,1.77.55.15-.48-1.77-.55M9.99,5.47v.5s1.88-.06,1.88-.06v-.49s-1.88.05-1.88.05Z"/>
    </g>
    <g id="headFocus_0_Layer0_3_MEMBER_1_FILL">
      <path class="cls-10" d="M9.19,6.68c-.41-.06-.76-.03-1.07.1-.29.11-.46.26-.53.47-.02.03-.02.06-.01.09,0,.03.02.06.04.08s.05.04.08.06c.48.15.95.16,1.42.04.4.25.86.38,1.36.38.04,0,.07-.01.09-.03s.05-.04.06-.07c.02-.03.02-.06.02-.09,0-.21-.13-.41-.38-.6-.26-.21-.59-.34-.99-.4h-.05s-.03-.01-.05-.02Z"/>
    </g>
    <g id="headFocus_0_Layer0_3_MEMBER_2_FILL">
      <path class="cls-12" d="M9.64,6.91c.13-.06.2-.15.21-.26.02-.1-.03-.21-.13-.31-.1-.09-.24-.15-.4-.17s-.3,0-.43.05c-.13.07-.2.15-.21.26-.02.11.03.21.13.31.1.1.23.17.39.19s.31,0,.44-.07Z"/>
    </g>
    <g id="headFocus_0_Layer0_4_FILL">
      <path class="cls-10" d="M6.31,2.57h0c-.12,0-.22.04-.31.13-.09.07-.13.17-.13.29l-.08,2.8c0,.11.03.21.11.31.08.08.18.12.3.12h0c.12,0,.22-.03.3-.11s.13-.18.13-.3l.08-2.78c0-.12-.04-.23-.12-.31-.08-.08-.17-.13-.28-.14M12.9,3.65c-.1.06-.16.14-.2.26l-.73,2.68c-.03.12-.02.23.04.33.05.1.14.17.25.2h0c.11.03.21.02.31-.03.11-.07.18-.15.21-.26l.74-2.7c.03-.11.02-.22-.04-.31-.06-.11-.15-.18-.26-.21h0c-.11-.02-.22,0-.31.05Z"/>
    </g>
    <g id="headFocus_0_Layer0_5_FILL">
      <path class="cls-10" d="M12.27,4.06c.77-.13,1.17-.34,1.22-.65s-.28-.61-.99-.91c-.69-.3-1.56-.52-2.6-.64-1.03-.12-1.93-.12-2.7,0-.76.13-1.17.35-1.21.65s.28.61.98.91c.7.31,1.57.52,2.6.64,1.04.13,1.94.12,2.7,0Z"/>
    </g>
  </g>
</svg>