<?xml version="1.0" encoding="UTF-8"?>
<svg id="Layer_1" xmlns="http://www.w3.org/2000/svg" xmlns:xlink="http://www.w3.org/1999/xlink" viewBox="0 0 10.61 16">
  <defs>
    <style>
      .cls-1 {
        fill: #72a2bd;
      }

      .cls-2 {
        fill: url(#radial-gradient);
      }

      .cls-3 {
        fill: #bf7959;
      }

      .cls-4 {
        fill: #c0d4e5;
      }

      .cls-5 {
        fill: #696ab1;
      }

      .cls-6 {
        fill: #eea161;
      }

      .cls-7 {
        fill: #464b52;
      }

      .cls-8 {
        fill: #fff;
      }

      .cls-9 {
        fill: #3d3f42;
      }

      .cls-10 {
        fill: #47ba7b;
      }

      .cls-11 {
        fill: #955536;
      }

      .cls-12 {
        fill: #25a863;
      }

      .cls-13 {
        fill: #a86040;
      }
    </style>
    <radialGradient id="radial-gradient" cx="-29.11" cy="91.76" fx="-29.11" fy="91.76" r="2.27" gradientTransform="translate(49.26 100.1) scale(1.51 -1)" gradientUnits="userSpaceOnUse">
      <stop offset="0" stop-color="#010101" stop-opacity=".3"/>
      <stop offset="1" stop-color="#010101" stop-opacity="0"/>
    </radialGradient>
  </defs>
  <g id="back_FL_FL_FL_FL_FL_FL_FL_FL_FL_FL_FL_FL_FL_FL_FL_FL_FL_FL_FL_FL_FL_FL_FL_FL_FL_FL_FL_FL_FL_FL_FL_FL_FL_FL_FL_FL_FL_FL">
    <g id="Symbol_1_0_Layer0_0_MEMBER_0_FILL">
      <path class="cls-7" d="M2.78,5.41l-.62-.03c-.07,0-.13.02-.18.07-.06.05-.09.11-.09.18-.04.79-.35,1.48-.94,2.07-.05.04-.08.09-.08.17,0,.08.01.14.06.19h0s.01,0,.02,0c.86-.75,1.44-1.58,1.74-2.48.02-.06.05-.11.09-.16Z"/>
      <path class="cls-9" d="M4.53,5.51l-1.75-.1c-.04.05-.08.1-.09.16-.3.9-.87,1.73-1.74,2.48,0,0-.01.01-.02.02.05.05.11.08.18.09,1.84.19,3.06-.57,3.66-2.28.02-.06.02-.12,0-.17-.02-.06-.05-.1-.09-.13-.05-.04-.1-.07-.16-.07Z"/>
    </g>
    <g id="Symbol_1_0_Layer0_0_MEMBER_1_FILL">
      <path class="cls-9" d="M8.36,5.56c-.02-.06-.05-.11-.09-.16l-1.75.1c-.06,0-.11.02-.16.07-.04.03-.08.08-.09.13-.01.05,0,.11,0,.17.6,1.72,1.82,2.48,3.66,2.28.07-.01.13-.04.18-.09l-.02-.02c-.86-.75-1.44-1.58-1.74-2.48Z"/>
      <path class="cls-7" d="M9.17,5.62c0-.07-.04-.13-.09-.18-.06-.05-.12-.07-.18-.07l-.62.03c.04.05.08.1.09.16.3.9.87,1.73,1.74,2.48l.02.02h0c.04-.06.06-.12.06-.2,0-.07-.03-.13-.08-.17-.58-.6-.9-1.29-.94-2.07Z"/>
    </g>
  </g>
  <g id="leg_0_Layer0_0_FILL">
    <path class="cls-8" d="M8.46,16l.02-.5h-2.5v.5h2.48Z"/>
    <path class="cls-4" d="M8.48,15.5c-.54-.15-.86-.48-.96-1h-1.54v1h2.5Z"/>
    <path class="cls-3" d="M7.52,14.5h0l.03-.84h-1.57v.84h1.54Z"/>
    <path class="cls-5" d="M7.63,12.12c0-.27-.11-.5-.32-.69-.21-.19-.46-.28-.76-.28s-.55.09-.76.28c-.21.19-.32.42-.32.69.33.27.5.78.51,1.54h1.57l.08-1.54Z"/>
  </g>
  <g id="leg_0_Layer0_0_FILL-2" data-name="leg_0_Layer0_0_FILL">
    <path class="cls-8" d="M2.15,16l-.02-.5h2.5v.5h-2.48Z"/>
    <path class="cls-4" d="M2.13,15.5c.54-.15.86-.48.96-1h1.54v1h-2.5Z"/>
    <path class="cls-3" d="M3.09,14.5h0l-.03-.84h1.57v.84h-1.54Z"/>
    <path class="cls-5" d="M2.98,12.12c0-.27.11-.5.32-.69.21-.19.46-.28.76-.28s.55.09.76.28c.21.19.32.42.32.69-.33.27-.5.78-.51,1.54h-1.57l-.08-1.54Z"/>
  </g>
  <g id="arm_0_Layer0_0_FILL">
    <path class="cls-3" d="M9.08,11.86c.07.4.12.7.15.92s.16.34.4.36c.23.02.43-.05.61-.2.18-.15.28-.34.3-.56.04-.5,0-.97-.11-1.43l-1.46.54c.05.13.09.25.11.37Z"/>
    <path class="cls-10" d="M8.32,10.42c.14.18.26.36.37.53l1.52-.64c-.1-.23-.22-.45-.37-.68-.29-.45-.67-.87-1.14-1.29-.18-.16-.38-.23-.62-.22-.24.01-.43.1-.58.28-.17.16-.25.36-.23.59.01.23.11.42.28.57.31.28.57.57.77.86Z"/>
    <path class="cls-12" d="M10.44,10.95l.18-.08-.18-.66-.22.09-1.52.64-.15.06.22.57.22-.08,1.46-.54Z"/>
  </g>
  <g id="arm_0_Layer0_0_FILL-2" data-name="arm_0_Layer0_0_FILL">
    <path class="cls-3" d="M1.53,11.86c-.07.4-.12.7-.15.92s-.16.34-.4.36c-.23.02-.43-.05-.61-.2-.18-.15-.28-.34-.3-.56-.04-.5,0-.97.11-1.43l1.46.54c-.05.13-.09.25-.11.37Z"/>
    <path class="cls-10" d="M2.29,10.42c-.14.18-.26.36-.37.53l-1.52-.64c.1-.23.22-.45.37-.68.29-.45.67-.87,1.14-1.29.18-.16.38-.23.62-.22.24.01.43.1.58.28.17.16.25.36.23.59-.01.23-.11.42-.28.57-.31.28-.57.57-.77.86Z"/>
    <path class="cls-12" d="M.18,10.95l-.18-.08.18-.66.22.09,1.52.64.15.06-.22.57-.22-.08-1.46-.54Z"/>
  </g>
  <g>
    <g id="body_0_Layer0_0_FILL">
      <path class="cls-5" d="M3.01,12.25c0,.24.03.49.1.76h4.23c.07-.27.11-.52.1-.76H3.01Z"/>
      <path class="cls-12" d="M2.98,11.42h.49c.08-.47-.17-.92-.76-1.34l.03.13c.12.37.19.77.23,1.2M7.7,10.22l.03-.13c-.59.42-.84.86-.75,1.34h.49c.04-.43.11-.83.23-1.2M6.88,10.15c0-.09-.16-.18-.48-.25-.33-.06-.72-.08-1.19-.08-.46,0-.86.03-1.19.08-.32.07-.48.16-.48.25s.16.17.48.23c.33.07.72.11,1.19.11s.86-.04,1.19-.11c.32-.06.48-.13.48-.23Z"/>
      <path class="cls-9" d="M7.66,11.42H2.79l.13.83h4.62l.13-.83Z"/>
      <path class="cls-10" d="M8.27,9.02c.11-.56,0-.86-.35-.88H2.61c-.41-.02-.55.27-.43.88.25.35.44.75.58,1.19l-.03-.13c.59.42.84.86.76,1.34h3.5c-.09-.47.16-.92.75-1.34l-.03.13c.14-.45.33-.84.58-1.19M6.41,9.9c.32.07.48.16.48.25s-.16.17-.48.23c-.33.07-.72.11-1.19.11s-.86-.04-1.19-.11c-.32-.06-.48-.13-.48-.23s.16-.18.48-.25c.33-.06.72-.08,1.19-.08.46,0,.86.03,1.19.08Z"/>
    </g>
    <g id="body_0_Layer0_1_FILL">
      <path class="cls-8" d="M6.98,8.12c-.03.36-.2.66-.5.92-.35.3-.77.44-1.26.44-.49,0-.91-.15-1.26-.44-.3-.25-.47-.55-.49-.9-.06.14-.09.28-.09.43,0,.03,0,.06,0,.08.02.35.19.64.53.88.36.27.8.41,1.31.41s.95-.14,1.32-.41c.33-.24.51-.53.53-.88,0-.03,0-.06,0-.08,0-.16-.03-.31-.09-.45Z"/>
      <path class="cls-3" d="M6.99,7.99c0-.41-.17-.77-.51-1.07-.35-.28-.77-.43-1.26-.43s-.91.14-1.26.43c-.34.3-.51.66-.51,1.07,0,.03,0,.06,0,.08,0,.02,0,.04,0,.07.03.35.19.65.49.9.35.3.77.44,1.26.44.49,0,.91-.15,1.26-.44.3-.26.47-.56.5-.92v-.05s0-.06,0-.08Z"/>
    </g>
  </g>
  <g id="hand_0_Layer0_0_FILL">
    <path class="cls-13" d="M8.31,13.92v-.16c.05-.69.3-1.23.76-1.61-1.05.73-1.3,1.32-.77,1.78h0Z"/>
    <path class="cls-3" d="M10.41,12.15h-1.34c-.46.38-.71.92-.77,1.61v.16s0,0,0,0c0,.18,0,.38,0,.59v.06c0,.16.11.26.34.31.35.07.68.11,1,.1.82,0,1.08-.95.76-2.84Z"/>
  </g>
  <g id="hand_0_Layer0_0_FILL-2" data-name="hand_0_Layer0_0_FILL">
    <path class="cls-13" d="M2.3,13.92v-.16c-.05-.69-.3-1.23-.76-1.61,1.05.73,1.3,1.32.77,1.78h0Z"/>
    <path class="cls-3" d="M.2,12.15h1.34c.46.38.71.92.77,1.61v.16s0,0,0,0c0,.18,0,.38,0,.59v.06c0,.16-.11.26-.34.31-.35.07-.68.11-1,.1-.82,0-1.08-.95-.76-2.84Z"/>
  </g>
  <g id="shadow_0_Layer0_0_FILL">
    <path class="cls-2" d="M7.75,6.74c-.65-.43-1.45-.65-2.38-.65s-1.73.22-2.41.65c-.65.45-.98.98-.98,1.6s.33,1.14.98,1.58c.67.45,1.47.67,2.41.67s1.73-.22,2.38-.67c.67-.43,1.01-.96,1.01-1.58s-.34-1.15-1.01-1.6Z"/>
  </g>
  <g>
    <g id="head_0_Layer0_0_FILL">
      <path class="cls-9" d="M9.58,3.92c-.06-.8-.46-1.5-1.2-2.08-.81-.64-1.78-.96-2.92-.96s-2.12.32-2.92.96c-.74.58-1.13,1.28-1.19,2.08.06.91.46,1.69,1.19,2.35.81.72,1.78,1.09,2.92,1.09s2.12-.36,2.92-1.09c.74-.66,1.14-1.44,1.2-2.35Z"/>
      <path class="cls-7" d="M9.59,3.68c0-1.01-.4-1.88-1.21-2.61-.81-.71-1.78-1.07-2.92-1.07s-2.12.36-2.92,1.07c-.8.72-1.2,1.59-1.2,2.61,0,.08,0,.16,0,.24.06-.8.46-1.5,1.19-2.08.81-.64,1.78-.96,2.92-.96s2.12.32,2.92.96c.74.58,1.14,1.28,1.2,2.08,0-.08,0-.16,0-.24Z"/>
    </g>
    <g id="head_0_Layer0_1_MEMBER_0_FILL">
      <path class="cls-3" d="M1.5,4.19c-.26.26-.39.58-.39.96s.13.68.39.94c.26.27.58.41.94.41.36,0,.68-.14.94-.41.26-.26.39-.58.39-.94s-.13-.7-.39-.96c-.27-.27-.58-.4-.94-.4s-.68.13-.94.4M1.87,5.71c-.16-.16-.23-.35-.23-.57,0-.22.08-.41.23-.58.16-.16.35-.23.57-.23s.42.08.57.23c.16.17.23.37.23.58s-.08.41-.23.57c-.15.16-.34.24-.57.24s-.41-.08-.57-.24M7.68,6.09c.26.27.58.41.94.41.36,0,.68-.14.94-.41.26-.26.39-.58.39-.94s-.13-.7-.39-.96c-.27-.27-.58-.4-.94-.4s-.68.13-.94.4c-.26.26-.39.58-.39.96s.13.68.39.94M8.05,4.56c.16-.16.35-.23.57-.23s.41.08.57.23c.16.17.23.37.23.58,0,.22-.08.41-.23.57-.16.16-.35.24-.57.24s-.41-.08-.57-.24c-.16-.16-.23-.35-.23-.57s.08-.41.23-.58Z"/>
      <path class="cls-13" d="M1.64,5.15c0,.22.08.41.23.57.16.16.35.24.57.24s.42-.08.57-.24c.16-.16.23-.35.23-.57s-.08-.41-.23-.58c-.15-.16-.34-.23-.57-.23s-.41.08-.57.23c-.16.17-.23.37-.23.58M8.62,4.33c-.22,0-.41.08-.57.23-.16.17-.23.37-.23.58s.08.41.23.57c.16.16.35.24.57.24s.41-.08.57-.24c.16-.16.23-.35.23-.57,0-.22-.08-.41-.23-.58-.16-.16-.35-.23-.57-.23Z"/>
    </g>
    <g id="head_0_Layer0_1_MEMBER_1_FILL">
      <path class="cls-3" d="M8.64,6.41l.38-3.77H2.03l.38,3.77c.23.82.81,1.4,1.74,1.72.47.16.92.24,1.37.23.45.01.91-.06,1.37-.23.94-.32,1.52-.9,1.75-1.72Z"/>
    </g>
    <g id="head_0_Layer0_1_MEMBER_2_FILL">
      <path class="cls-11" d="M5.92,6.21c.12-.08.18-.17.18-.27,0-.1-.06-.19-.18-.28-.11-.07-.25-.11-.41-.11-.15,0-.28.04-.39.11-.11.08-.17.18-.17.28s.06.19.17.27c.11.09.24.13.39.13.16,0,.3-.04.41-.13Z"/>
    </g>
    <g id="head_0_Layer0_1_MEMBER_2_MEMBER_0_FILL">
      <path class="cls-9" d="M3.43,5.48s0-.04,0-.06c0-.19.06-.36.19-.5.11-.11.23-.18.38-.21h-.96c.23.18.36.44.38.77M4.54,5.84c.08-.11.12-.25.12-.42s-.04-.3-.12-.42c-.08-.12-.18-.18-.29-.18-.11,0-.2.06-.28.18-.08.12-.12.26-.12.42s.04.31.12.42c.07.12.16.18.28.18.12,0,.21-.06.29-.18M7.63,5.42v.06c.02-.33.15-.58.38-.77h-.95c.15.03.28.1.38.21.13.14.19.31.19.5M6.4,5.42c0,.17.04.31.12.42.07.12.17.18.28.18s.21-.06.28-.18c.08-.11.12-.25.12-.42s-.04-.3-.12-.42c-.08-.12-.17-.18-.28-.18-.12,0-.21.06-.28.18-.08.12-.12.26-.12.42Z"/>
      <path class="cls-8" d="M4.07,4.7s-.04,0-.07,0c-.15.03-.28.1-.38.21-.13.14-.19.31-.19.5,0,.02,0,.04,0,.06.01.17.08.31.19.44.13.14.3.22.49.22s.35-.07.48-.22c.13-.14.2-.31.2-.5s-.07-.36-.2-.5c-.13-.14-.29-.22-.48-.22-.02,0-.03,0-.04,0M4.65,5.42c0,.17-.04.31-.12.42-.08.12-.18.18-.29.18s-.2-.06-.28-.18c-.08-.11-.12-.25-.12-.42s.04-.3.12-.42c.07-.12.16-.18.28-.18.12,0,.21.06.29.18.08.12.12.26.12.42M7.05,4.71s-.04,0-.07,0c-.02,0-.03,0-.05,0-.19,0-.35.07-.47.22-.13.14-.2.31-.2.5,0,.19.07.36.2.5.12.14.28.22.47.22.2,0,.37-.07.5-.22.12-.13.18-.28.19-.44v-.06c0-.19-.06-.36-.19-.5-.11-.11-.23-.18-.38-.21M6.52,5.84c-.08-.11-.12-.25-.12-.42s.04-.3.12-.42c.07-.12.17-.18.28-.18.11,0,.21.06.28.18.08.12.12.26.12.42s-.04.31-.12.42c-.08.12-.17.18-.28.18-.12,0-.21-.06-.28-.18Z"/>
    </g>
    <g id="head_0_Layer0_1_MEMBER_2_MEMBER_1_FILL">
      <path class="cls-8" d="M5.91,7.22v-.53h-1.28s-.08.01-.11.04c-.04.02-.06.04-.07.08-.01.03-.01.06,0,.11,0,.06.03.11.06.18.03.04.06.08.09.13h1.3Z"/>
      <path class="cls-13" d="M6.43,6.68h-.53v.53h-1.3c.03.06.08.11.13.15.22.21.48.32.79.32s.56-.1.79-.31h.02c.08-.09.15-.18.21-.28.03-.06.06-.12.08-.18,0-.04,0-.08,0-.11-.01-.04-.03-.07-.07-.08-.03-.03-.07-.04-.11-.04Z"/>
    </g>
    <g id="head_0_Layer0_2_FILL">
      <path class="cls-9" d="M8.97,4.07l.17-1.4h-.09v-.14H1.9l.11,1.28c1.2-.02,2.08-.25,2.66-.69.58.72,1.19,1.09,1.85,1.1l.24-.52c.75.28,1.49.4,2.21.37Z"/>
    </g>
    <g id="head_0_Layer0_3_FILL">
      <path class="cls-1" d="M8.47,2.51c-.09-.12-.2-.24-.33-.36-.62-.52-1.49-.79-2.61-.79s-1.99.26-2.6.78c-.04.03-.08.06-.11.1-.09.08-.17.17-.23.27-.07.09-.08.2-.03.33.72-.41,1.71-.62,2.97-.62,1.25,0,2.23.2,2.96.61.05-.12.04-.23-.02-.32Z"/>
    </g>
    <g id="head_0_Layer0_4_FILL">
      <path class="cls-9" d="M2.84,4.92c.07-.09.09-.19.08-.31l-.11-.94h-.83l.13,1.04c.01.11.06.21.16.28.09.07.19.09.3.08h0c.11-.01.2-.06.26-.15Z"/>
    </g>
    <g id="head_0_Layer0_5_FILL">
      <path class="cls-9" d="M8.1,4.61c-.01.12.02.22.08.31.07.09.16.14.27.15h0c.11.02.21,0,.3-.08.09-.08.15-.17.16-.28l.13-1.04h-.84l-.11.94Z"/>
    </g>
    <g id="head_0_Layer0_6_MEMBER_0_FILL">
      <path class="cls-9" d="M3.22,3.95l-.11.4,1.58.16.09-.33-1.56-.23Z"/>
    </g>
    <g id="head_0_Layer0_6_MEMBER_1_FILL">
      <path class="cls-9" d="M7.95,4.38l-.07-.4-1.56.08.06.34,1.57-.02Z"/>
    </g>
    <g id="head_0_Layer0_7_FILL">
      <path class="cls-6" d="M8.93,5.71c-.04.08-.06.16-.03.23l.17.64c.02.08.07.14.14.18.07.04.15.05.23.03h0c.08-.02.14-.07.18-.14.04-.08.06-.16.03-.24l-.17-.63c-.02-.08-.07-.14-.15-.18-.08-.04-.15-.05-.23-.03h0c-.08.02-.14.07-.18.14Z"/>
    </g>
    <g id="head_0_Layer0_8_FILL">
      <path class="cls-6" d="M2.14,5.71c-.04-.07-.1-.12-.18-.14h0c-.08-.02-.16-.01-.23.03-.08.04-.13.11-.15.18l-.16.63c-.02.08-.01.16.03.24.04.07.1.12.18.14h0c.08.02.16.01.23-.03.08-.04.13-.11.15-.18l.17-.64c.02-.08.01-.16-.03-.23Z"/>
    </g>
  </g>
</svg>