<?xml version="1.0" encoding="UTF-8"?>
<svg id="Layer_1" xmlns="http://www.w3.org/2000/svg" xmlns:xlink="http://www.w3.org/1999/xlink" viewBox="0 0 10.5 16">
  <defs>
    <style>
      .cls-1 {
        fill: #4e51a3;
      }

      .cls-2 {
        fill: url(#radial-gradient);
      }

      .cls-3 {
        fill: #696ab1;
      }

      .cls-4 {
        fill: #eea161;
      }

      .cls-5 {
        fill: #464b52;
      }

      .cls-6 {
        fill: #29a686;
      }

      .cls-7 {
        fill: #3d3f42;
      }

      .cls-8 {
        fill: #45bd9d;
      }

      .cls-9 {
        fill: #ffcd05;
      }

      .cls-10 {
        fill: #1b7f64;
      }
    </style>
    <radialGradient id="radial-gradient" cx="-29.17" cy="91.31" fx="-29.17" fy="91.31" r="2.14" gradientTransform="translate(49.29 100.1) scale(1.51 -1)" gradientUnits="userSpaceOnUse">
      <stop offset="0" stop-color="#010101" stop-opacity=".3"/>
      <stop offset="1" stop-color="#010101" stop-opacity="0"/>
    </radialGradient>
  </defs>
  <g id="leg_0_Layer0_0_FILL">
    <path class="cls-8" d="M7.34,14.58l.02-.79h-.94c-.18.35-.5.53-.95.55v.24s1.86,0,1.86,0h0Z"/>
    <path class="cls-7" d="M8.22,16l.02-.47-.9-.94h-1.86l-.06,1.42h2.81Z"/>
    <path class="cls-4" d="M7.44,12.35c0-.25-.1-.47-.3-.64-.19-.18-.43-.27-.72-.27s-.52.09-.72.27c-.2.18-.3.39-.3.64l.09,1.45-.02.55c.46-.02.77-.2.95-.55h.94l.07-1.45Z"/>
  </g>
  <g id="leg_0_Layer0_0_FILL-2" data-name="leg_0_Layer0_0_FILL">
    <path class="cls-8" d="M3.16,14.58l-.02-.79h.94c.18.35.5.53.95.55v.24s-1.86,0-1.86,0h0Z"/>
    <path class="cls-7" d="M2.28,16l-.02-.47.9-.94h1.86l.06,1.42h-2.81Z"/>
    <path class="cls-4" d="M3.06,12.35c0-.25.1-.47.3-.64.19-.18.43-.27.72-.27s.52.09.72.27c.2.18.3.39.3.64l-.09,1.45.02.55c-.46-.02-.77-.2-.95-.55h-.94l-.07-1.45Z"/>
  </g>
  <g id="arm_0_Layer0_0_FILL">
    <path class="cls-1" d="M9.89,10.51h.35c-.28-.13-.49-.3-.63-.53-.26-.4-.57-.78-.94-1.14-.18-.17-.4-.25-.66-.26-.26,0-.48.1-.66.28-.18.19-.26.41-.25.66,0,.26.09.47.27.65.25.24.46.5.63.78.18.24.26.51.25.8l.07-.18.2-.53c.26.15.5.23.7.24.1-.22.15-.48.13-.78h.55Z"/>
    <path class="cls-8" d="M10.11,11.04s-.03-.08-.05-.13l-1.62,1.05c.04.16.07.33.09.51.03.25.14.46.34.62.2.16.44.23.69.2.25-.03.46-.15.62-.35.16-.19.23-.42.2-.68-.04-.3-.09-.59-.17-.87-.03-.12-.07-.24-.11-.35Z"/>
    <path class="cls-6" d="M10.06,10.91c-.05-.14-.11-.27-.17-.4h-.55c.02.3-.02.56-.13.78-.2,0-.44-.08-.7-.24l-.2.53c.05.13.09.25.13.39l1.62-1.05Z"/>
  </g>
  <g id="arm_0_Layer0_0_FILL-2" data-name="arm_0_Layer0_0_FILL">
    <path class="cls-1" d="M.61,10.51h-.35c.28-.13.49-.3.63-.53.26-.4.57-.78.94-1.14.18-.17.4-.25.66-.26.26,0,.48.1.66.28.18.19.26.41.25.66,0,.26-.09.47-.27.65-.25.24-.46.5-.63.78-.18.24-.26.51-.25.8l-.07-.18-.2-.53c-.26.15-.5.23-.7.24-.1-.22-.15-.48-.13-.78h-.55Z"/>
    <path class="cls-8" d="M.39,11.04s.03-.08.05-.13l1.62,1.05c-.04.16-.07.33-.09.51-.03.25-.14.46-.34.62-.2.16-.44.23-.69.2-.25-.03-.46-.15-.62-.35-.16-.19-.23-.42-.2-.68.04-.3.09-.59.17-.87.03-.12.07-.24.11-.35Z"/>
    <path class="cls-6" d="M.44,10.91c.05-.14.11-.27.17-.4h.55c-.02.3.02.56.13.78.2,0,.44-.08.7-.24l.2.53c-.05.13-.09.25-.13.39l-1.62-1.05Z"/>
  </g>
  <g>
    <g id="body_0_Layer0_0_FILL">
      <path class="cls-4" d="M7.54,12.37h-.43l-.65-.7-.71.7h-2.93c.01.35.09.62.24.82h4.25c.15-.2.23-.47.24-.82Z"/>
      <path class="cls-3" d="M8.04,9.44c.11-.57-.03-.84-.41-.82H2.71c-.38-.02-.52.25-.41.82l.51,2.15v.78h2.93l.71-.7.65.7h.43v-.78l.5-2.15Z"/>
    </g>
    <g id="body_0_Layer0_0_MEMBER_0_FILL">
      <path class="cls-6" d="M6.44,7.45c-.33-.27-.73-.4-1.19-.4s-.86.13-1.19.4c-.32.28-.49.62-.49,1.01,0,.03,0,.05,0,.08.02.36.18.66.48.91.33.28.73.42,1.19.42s.86-.14,1.19-.42c.3-.25.46-.56.48-.91,0-.03,0-.05,0-.08,0-.39-.16-.73-.49-1.01Z"/>
    </g>
    <g id="body_0_Layer0_0_MEMBER_1_FILL">
      <path class="cls-1" d="M3.19,8.47l-.32.57,2.06,1.2.32-.57-2.06-1.19M7.31,8.47l-2.06,1.19.32.57,2.06-1.2-.32-.57Z"/>
      <path class="cls-3" d="M5.57,10.23l-.32-.57-.32.57h.64Z"/>
    </g>
    <g id="body_0_Layer0_0_MEMBER_2_FILL">
      <path class="cls-8" d="M5.4,10.61s-.03-.01-.04,0c-.14.04-.34.19-.61.44h0c-.25.27-.39.47-.44.6,0,.02,0,.03,0,.04,0,.02.02.03.03.04.02,0,.03,0,.04,0,.14-.04.35-.18.61-.42h0c.25-.28.39-.48.43-.62,0-.02,0-.03,0-.04,0-.02-.01-.03-.02-.03Z"/>
    </g>
    <g id="body_0_Layer0_0_MEMBER_3_FILL">
      <path class="cls-8" d="M3.19,9.77s0,.03,0,.04c0,.15.1.38.28.7h0c.19.32.35.51.46.59.02,0,.03,0,.04,0,.02,0,.04,0,.05-.02.01-.02.02-.03.02-.04,0-.15-.09-.38-.26-.71-.2-.3-.36-.5-.49-.57-.02-.01-.03-.02-.04-.02-.02,0-.03.01-.04.02Z"/>
    </g>
  </g>
  <g id="hand_0_Layer0_0_FILL">
    <path class="cls-6" d="M7.95,14.04v-.15c.04-.65.24-1.15.59-1.51-.91.68-1.11,1.23-.6,1.67h0Z"/>
    <path class="cls-8" d="M10.49,12.59c0-.14-.08-.21-.24-.21h-1.72c-.35.36-.55.87-.6,1.52v.15s0,0,0,0c0,.17,0,.36,0,.55v.06c0,.15.11.24.34.28.33.07.65.11.97.1.89,0,1.31-.78,1.25-2.32v-.14Z"/>
  </g>
  <g id="hand_0_Layer0_0_FILL-2" data-name="hand_0_Layer0_0_FILL">
    <path class="cls-6" d="M2.55,14.04v-.15c-.04-.65-.24-1.15-.59-1.51.91.68,1.11,1.23.6,1.67h0Z"/>
    <path class="cls-8" d="M0,12.59c0-.14.08-.21.24-.21h1.72c.35.36.55.87.6,1.52v.15s0,0,0,0c0,.17,0,.36,0,.55v.06c0,.15-.11.24-.34.28-.33.07-.65.11-.97.1-.89,0-1.31-.78-1.25-2.32v-.14Z"/>
  </g>
  <g id="shadow_0_Layer0_0_FILL">
    <path class="cls-2" d="M7.55,7.29c-.62-.41-1.36-.61-2.24-.61s-1.63.2-2.26.61c-.62.42-.92.92-.92,1.5s.31,1.08.92,1.49c.63.42,1.39.63,2.26.63s1.62-.21,2.24-.63c.63-.41.95-.9.95-1.49s-.32-1.08-.95-1.5Z"/>
  </g>
  <g>
    <g id="head_0_Layer0_0_FILL">
      <path class="cls-8" d="M1.66,5.78c-.25.25-.37.55-.37.9s.12.64.37.9c.25.25.55.38.9.38s.64-.13.9-.38c.25-.25.37-.55.37-.9,0-.36-.12-.66-.37-.9s-.55-.38-.9-.38c-.35,0-.64.13-.9.38M2.03,7.22c-.15-.15-.22-.32-.22-.53s.07-.39.22-.55c.15-.15.32-.22.53-.22s.4.07.54.22c.15.16.22.35.22.55,0,.21-.07.39-.22.53-.15.16-.33.24-.54.24s-.39-.08-.53-.24M7.52,5.78c-.25.25-.37.55-.37.9s.12.64.37.9c.25.25.55.38.9.38s.64-.13.9-.38c.25-.25.37-.55.37-.9s-.12-.66-.37-.9c-.25-.25-.55-.38-.9-.38-.35,0-.64.13-.9.38M7.88,6.13c.15-.15.32-.22.53-.22s.39.07.54.22c.15.16.22.35.22.55s-.07.39-.22.53c-.15.16-.33.24-.54.24s-.39-.08-.53-.24c-.15-.15-.23-.32-.23-.53s.08-.39.23-.55Z"/>
      <path class="cls-6" d="M1.81,6.68c0,.21.07.39.22.53.15.16.32.24.53.24s.4-.08.54-.24c.15-.15.22-.32.22-.53,0-.2-.07-.39-.22-.55-.15-.15-.33-.22-.54-.22s-.39.07-.53.22c-.15.16-.22.35-.22.55M8.42,5.91c-.21,0-.39.07-.53.22-.15.16-.23.35-.23.55s.08.39.23.53c.15.16.32.24.53.24s.39-.08.54-.24c.15-.15.22-.32.22-.53s-.07-.39-.22-.55c-.15-.15-.33-.22-.54-.22Z"/>
    </g>
    <g id="head_0_Layer0_1_FILL">
      <path class="cls-8" d="M7.39,8.81c.56-.07.88-.38.96-.92l.42-4.14H2.16l.51,5.06h4.72Z"/>
    </g>
    <g id="head_0_Layer0_2_FILL">
      <path class="cls-7" d="M9.72,1.85l-.03-.06-.91.09c-.08.77-.5,1.33-1.25,1.68.16-.93.1-1.49-.17-1.67-.39-.14-.81-.46-1.25-.94-.2-.26-.4-.26-.58-.02-.52.75-1.11,1.38-1.76,1.86-.48-.17-.96-.44-1.45-.79-.19.44-.3.67-.31.72-.12.37-.16.73-.13,1.1.01.13.03.27.06.41l.61.88v-.81c.08-.02.17-.03.25-.05l.05.02c.56.24,1.23.36,2.01.36s1.46-.12,2.01-.36c.15-.07.28-.14.39-.21.49.06.98.14,1.47.24v.91l.19-.39c.45-.87.69-1.36.73-1.48.05-.17.09-.34.11-.5v-.02c.04-.32.02-.65-.04-.97Z"/>
      <path class="cls-5" d="M9.72,1.85c-.07-.32-.19-.65-.37-.97l-1.67.24c-.5.05-1.07-.26-1.71-.94-.21-.24-.39-.24-.54,0-.41.77-.97,1.37-1.68,1.81-.39.17-.86.17-1.43,0,.49.35.97.61,1.45.79.66-.49,1.24-1.11,1.76-1.86.18-.24.38-.23.58.02.44.49.86.8,1.25.94.28.18.34.74.17,1.67.75-.35,1.17-.91,1.25-1.68l.91-.09.03.06Z"/>
    </g>
    <g id="head_0_Layer0_3_FILL">
      <path class="cls-6" d="M5.89,7.17c.11-.07.17-.16.17-.25s-.06-.18-.17-.26c-.1-.07-.23-.1-.39-.1-.15,0-.27.03-.38.1-.1.08-.16.17-.16.26,0,.09.05.18.16.25.1.08.23.12.38.12s.28-.04.39-.12Z"/>
    </g>
    <g id="head_0_Layer0_3_MEMBER_0_MEMBER_0_FILL">
      <path class="cls-6" d="M8.16,6.86c0-.26-.09-.49-.26-.68-.18-.19-.41-.28-.68-.28s-.47.09-.64.28c-.18.19-.28.42-.28.68s.09.49.28.68c.17.19.39.29.64.29s.49-.1.68-.29c.17-.19.26-.42.26-.68Z"/>
    </g>
    <g id="head_0_Layer0_3_MEMBER_0_MEMBER_1_FILL">
      <path class="cls-9" d="M6.66,6.65c0,.15.05.28.16.39.09.11.21.17.36.17.16,0,.29-.06.39-.17.1-.1.15-.23.15-.39,0-.15-.05-.28-.15-.39-.1-.1-.23-.16-.39-.16-.15,0-.27.05-.36.16-.1.12-.16.25-.16.39Z"/>
    </g>
    <g id="head_0_Layer0_3_MEMBER_1_FILL">
      <path class="cls-6" d="M4.68,6.94c.18-.19.28-.42.28-.68s-.09-.49-.28-.68c-.17-.19-.39-.28-.64-.28s-.49.09-.68.28c-.17.19-.26.41-.26.68s.09.5.26.68c.18.19.41.29.68.29s.47-.1.64-.29Z"/>
    </g>
    <g id="head_0_Layer0_3_MEMBER_2_FILL">
      <path class="cls-5" d="M3.02,4.83l.14.55,1.43-.39-.14-.54-1.43.39Z"/>
    </g>
    <g id="head_0_Layer0_3_MEMBER_3_FILL">
      <path class="cls-5" d="M7.99,5.87l.06-.56-1.48-.18-.06.57,1.47.17Z"/>
    </g>
    <g id="head_0_Layer0_3_MEMBER_4_FILL">
      <path class="cls-9" d="M4.43,6.44c.1-.1.16-.24.16-.39,0-.15-.05-.28-.16-.39-.09-.1-.21-.16-.36-.16-.16,0-.29.05-.39.16-.1.11-.15.24-.15.39,0,.16.05.29.15.39.1.11.23.17.39.17.15,0,.27-.06.36-.17Z"/>
    </g>
    <g id="head_0_Layer0_4_FILL">
      <path class="cls-7" d="M2.3,3.88h0c-.1.02-.19.07-.26.16-.07.08-.09.18-.08.28l.2,1.66c.01.1.06.19.15.26.08.07.18.09.28.08h0c.1-.01.19-.06.25-.15.06-.08.09-.18.08-.28l-.2-1.65c-.02-.11-.07-.2-.15-.27-.08-.06-.17-.09-.28-.09M8.4,3.97c-.08.07-.13.16-.15.27l-.23,1.87c-.01.1.02.2.08.29.06.08.15.13.25.14h0c.1.02.2,0,.28-.07.09-.07.14-.16.15-.27l.23-1.88c.02-.1-.01-.2-.08-.28-.07-.09-.15-.14-.26-.16h0c-.1,0-.2.02-.28.09Z"/>
    </g>
    <g id="head_0_Layer0_5_FILL">
      <path class="cls-10" d="M6.08,7.75c-.15-.07-.32-.11-.52-.11s-.37.04-.52.11c-.17.09-.26.2-.25.33,0,.08.03.15.1.22.03.03.06.04.1.05.04,0,.08,0,.11-.02.04-.02.06-.05.06-.08.02-.03.05-.06.1-.08.09-.05.2-.07.32-.07s.23.02.32.07c.04.02.07.04.08.06.02.03.05.05.09.06.04.01.08.01.12,0,.04-.02.07-.04.09-.06.03-.05.05-.1.05-.15,0-.13-.08-.24-.25-.33Z"/>
    </g>
  </g>
</svg>